<svg width="22" height="22" viewBox="0 0 22 22" fill="none" xmlns="http://www.w3.org/2000/svg">
<path d="M16 19V17.6667C16 16.9594 15.7366 16.2811 15.2678 15.781V15.781C14.3697 14.8231 12.8736 14.7494 11.6544 14.2618L11.5721 14.2288C11.2048 14.0819 10.7952 14.0819 10.4279 14.2288L10.3456 14.2618C9.1264 14.7494 7.63032 14.8231 6.73223 15.781V15.781C6.26339 16.2811 6 16.9594 6 17.6667V19" stroke="white" stroke-width="1.5" stroke-linecap="round" stroke-linejoin="round"/>
<path d="M11.0001 12.3333C12.3808 12.3333 13.5001 11.1394 13.5001 9.66667C13.5001 8.19391 12.3808 7 11.0001 7C9.61941 7 8.50012 8.19391 8.50012 9.66667C8.50012 11.1394 9.61941 12.3333 11.0001 12.3333Z" stroke="white" stroke-width="1.5" stroke-linecap="round" stroke-linejoin="round"/>
<path d="M11 21C16.5228 21 21 16.5228 21 11C21 5.47715 16.5228 1 11 1C5.47715 1 1 5.47715 1 11C1 16.5228 5.47715 21 11 21Z" stroke="white" stroke-width="1.5" stroke-linecap="round" stroke-linejoin="round"/>
</svg>
