<svg width="23" height="27" viewBox="0 0 23 27" fill="none" xmlns="http://www.w3.org/2000/svg">
<path d="M15.6424 4.32678C14.639 5.46037 13.0337 6.35446 11.4284 6.22673C11.2277 4.694 12.0136 3.06547 12.9334 2.05961C13.9367 0.894095 15.6925 0.0638639 17.1139 0C17.2811 1.5966 16.629 3.16126 15.6424 4.32678Z" fill="white"/>
<path d="M17.097 6.53C15.6828 6.45228 14.3923 6.93609 13.35 7.32687C12.6792 7.57835 12.1112 7.79131 11.679 7.79131C11.1941 7.79131 10.6026 7.56697 9.93853 7.31508C9.06836 6.98503 8.07352 6.60768 7.03026 6.62579C4.63898 6.65773 2.41492 7.95097 1.19419 10.0106C-1.31414 14.1298 0.542026 20.2288 2.96675 23.5816C4.15403 25.2421 5.57542 27.0622 7.44831 26.9984C8.27227 26.9687 8.86498 26.7285 9.47838 26.48C10.1846 26.1939 10.9182 25.8967 12.0637 25.8967C13.1694 25.8967 13.8709 26.1862 14.5444 26.4641C15.1847 26.7283 15.7996 26.982 16.7124 26.9664C18.6522 26.9345 19.8729 25.306 21.0602 23.6455C22.3415 21.8634 22.9045 20.1241 22.99 19.8602L23 19.8296C22.998 19.8277 22.9821 19.8208 22.9542 19.8086C22.5259 19.6214 19.2522 18.1904 19.2208 14.3533C19.1892 11.1326 21.8174 9.50083 22.2311 9.24395C22.2563 9.22832 22.2733 9.21778 22.2809 9.21228C20.6087 6.84932 18 6.59386 17.097 6.53Z" fill="white"/>
</svg>
