<svg width="22" height="22" viewBox="0 0 22 22" fill="none" xmlns="http://www.w3.org/2000/svg">
<circle cx="11" cy="11" r="11" fill="#007AFE"/>
<path d="M5 6.59998H6.3H16.7" stroke="white" stroke-linecap="round" stroke-linejoin="round"/>
<path d="M15.4 6.6V15.7C15.4 16.0448 15.2631 16.3754 15.0193 16.6192C14.7755 16.863 14.4448 17 14.1 17H7.60005C7.25527 17 6.92461 16.863 6.68081 16.6192C6.43701 16.3754 6.30005 16.0448 6.30005 15.7V6.6M8.25005 6.6V5.3C8.25005 4.95522 8.38701 4.62456 8.63081 4.38076C8.87461 4.13696 9.20527 4 9.55005 4H12.15C12.4948 4 12.8255 4.13696 13.0693 4.38076C13.3131 4.62456 13.45 4.95522 13.45 5.3V6.6" stroke="white" stroke-linecap="round" stroke-linejoin="round"/>
<path d="M9.55005 9.84998V13.75" stroke="white" stroke-linecap="round" stroke-linejoin="round"/>
<path d="M12.1501 9.84998V13.75" stroke="white" stroke-linecap="round" stroke-linejoin="round"/>
</svg>
