<svg width="72" height="72" viewBox="0 0 72 72" fill="none" xmlns="http://www.w3.org/2000/svg">
<g filter="url(#filter0_d_431_290)">
<path d="M29.3407 26.2898C32.2058 21.0022 39.7942 21.0022 42.6593 26.2898V26.2898C43.359 27.581 44.419 28.641 45.7102 29.3407V29.3407C50.9978 32.2058 50.9978 39.7942 45.7102 42.6593V42.6593C44.419 43.359 43.359 44.419 42.6593 45.7102V45.7102C39.7942 50.9978 32.2058 50.9978 29.3407 45.7102V45.7102C28.641 44.419 27.581 43.359 26.2898 42.6593V42.6593C21.0022 39.7942 21.0022 32.2058 26.2898 29.3407V29.3407C27.581 28.641 28.641 27.581 29.3407 26.2898V26.2898Z" fill="#0029FF"/>
<path d="M26.4327 29.6044C27.7751 28.8771 28.8771 27.7751 29.6044 26.4327C32.3561 21.3545 39.6439 21.3545 42.3956 26.4327C43.1229 27.7751 44.2249 28.8771 45.5673 29.6044C50.6455 32.3561 50.6455 39.6439 45.5673 42.3956C44.2249 43.1229 43.1229 44.2249 42.3956 45.5673C39.6439 50.6455 32.3561 50.6455 29.6044 45.5673C28.8771 44.2249 27.7751 43.1229 26.4327 42.3956C21.3545 39.6439 21.3545 32.3561 26.4327 29.6044Z" stroke="white" stroke-width="0.6"/>
</g>
<g filter="url(#filter1_d_431_290)">
<path d="M41.7894 32.5264L34.5681 39.4737L30.2104 35.3358" stroke="white" stroke-width="0.6" stroke-linecap="round" stroke-linejoin="round" shape-rendering="crispEdges"/>
</g>
<defs>
<filter id="filter0_d_431_290" x="0.324219" y="0.324097" width="71.3516" height="71.3518" filterUnits="userSpaceOnUse" color-interpolation-filters="sRGB">
<feFlood flood-opacity="0" result="BackgroundImageFix"/>
<feColorMatrix in="SourceAlpha" type="matrix" values="0 0 0 0 0 0 0 0 0 0 0 0 0 0 0 0 0 0 127 0" result="hardAlpha"/>
<feOffset/>
<feGaussianBlur stdDeviation="11"/>
<feComposite in2="hardAlpha" operator="out"/>
<feColorMatrix type="matrix" values="0 0 0 0 0 0 0 0 0 0 0 0 0 0 0 0 0 0 0.78 0"/>
<feBlend mode="normal" in2="BackgroundImageFix" result="effect1_dropShadow_431_290"/>
<feBlend mode="normal" in="SourceGraphic" in2="effect1_dropShadow_431_290" result="shape"/>
</filter>
<filter id="filter1_d_431_290" x="27.9106" y="31.2263" width="16.1787" height="11.5474" filterUnits="userSpaceOnUse" color-interpolation-filters="sRGB">
<feFlood flood-opacity="0" result="BackgroundImageFix"/>
<feColorMatrix in="SourceAlpha" type="matrix" values="0 0 0 0 0 0 0 0 0 0 0 0 0 0 0 0 0 0 127 0" result="hardAlpha"/>
<feOffset dy="1"/>
<feGaussianBlur stdDeviation="1"/>
<feComposite in2="hardAlpha" operator="out"/>
<feColorMatrix type="matrix" values="0 0 0 0 0 0 0 0 0 0 0 0 0 0 0 0 0 0 1 0"/>
<feBlend mode="normal" in2="BackgroundImageFix" result="effect1_dropShadow_431_290"/>
<feBlend mode="normal" in="SourceGraphic" in2="effect1_dropShadow_431_290" result="shape"/>
</filter>
</defs>
</svg>
