<svg width="18" height="18" viewBox="0 0 18 18" fill="none" xmlns="http://www.w3.org/2000/svg">
<path d="M7.6465 10.8536C8.64308 11.8499 9.5437 12.2987 10.4004 12.3725C11.2487 12.4456 11.961 12.1406 12.5442 11.8388C12.6975 11.7595 12.823 11.6909 12.9419 11.626C13.0785 11.5514 13.2065 11.4815 13.3581 11.4054C13.6108 11.2785 13.8283 11.1894 14.0308 11.1469C14.2254 11.106 14.4029 11.1089 14.5831 11.1671C14.7669 11.2264 14.9865 11.3541 15.2456 11.613C15.5351 11.9024 15.8091 12.1631 16.0576 12.3994L16.0717 12.4128C16.326 12.6546 16.5497 12.8678 16.7446 13.0676C17.1434 13.4766 17.3638 13.7746 17.4534 14.0452C17.5308 14.2791 17.5271 14.5458 17.3224 14.9462C17.1081 15.3652 16.6895 15.8964 15.9733 16.6139C15.9335 16.6488 15.8946 16.6888 15.8691 16.715C15.8666 16.7175 15.8643 16.7198 15.8621 16.7221L15.8578 16.7265C15.819 16.7663 15.7784 16.8078 15.7303 16.8535C15.632 16.947 15.5056 17.0545 15.3433 17.1548C15.0256 17.3512 14.5433 17.5372 13.824 17.4936C12.3551 17.4047 9.82708 16.3521 5.73892 12.265C1.65026 8.17751 0.596269 5.64912 0.506518 4.17973C0.462561 3.46008 0.64827 2.9776 0.844458 2.6597C0.944643 2.49737 1.05203 2.37092 1.14545 2.27258C1.19131 2.22432 1.23295 2.18364 1.27281 2.14471L1.2768 2.14081C1.27906 2.1386 1.28146 2.13626 1.28399 2.1338C1.31005 2.1084 1.34971 2.06975 1.3845 2.03017C2.11484 1.3067 2.9465 1.04269 3.75727 1.08851C4.58559 1.13532 5.4201 1.50858 6.10717 2.10672C7.49165 3.31202 8.15406 5.29567 7.09841 7.05923C6.79095 7.57288 6.55612 8.17189 6.60368 8.84225C6.65185 9.52124 6.98337 10.1907 7.6465 10.8536Z" stroke="white"/>
</svg>
