<svg width="17" height="17" viewBox="0 0 17 17" fill="none" xmlns="http://www.w3.org/2000/svg">
<path fill-rule="evenodd" clip-rule="evenodd" d="M6.69545 10.6975L6.79669 10.6975L7.02106 10.6982C8.92671 10.7085 13.3909 10.8835 13.3909 13.8588C13.3909 16.6175 9.72451 16.9861 6.87259 17L6.36984 16.9998C4.46419 16.9895 0 16.8145 0 13.84C0 11.023 3.82075 10.6975 6.69545 10.6975ZM6.69545 11.9858C3.0991 11.9858 1.275 12.6101 1.275 13.84C1.275 15.0818 3.0991 15.7122 6.69545 15.7122C10.2918 15.7122 12.1159 15.0878 12.1159 13.8588C12.1159 12.6153 10.2918 11.9858 6.69545 11.9858ZM14.6235 5.08312C14.9754 5.08312 15.261 5.37169 15.261 5.72724C15.2609 6.32227 15.7431 6.80476 16.3381 6.80514L16.3625 6.80515C16.7144 6.80515 17 7.09372 17 7.44927C17 7.80482 16.7144 8.09339 16.3625 8.09339L16.3402 8.09337C15.7442 8.093 15.2609 8.57603 15.261 9.17198C15.261 9.52754 14.9754 9.8161 14.6235 9.8161C14.2716 9.8161 13.986 9.52754 13.986 9.17198C13.9859 8.57601 13.5026 8.093 12.9066 8.09337L12.886 8.09339C12.5341 8.09339 12.2485 7.80482 12.2485 7.44927C12.2485 7.09372 12.5341 6.80515 12.886 6.80515L12.9087 6.80514C13.5037 6.80477 13.9859 6.3223 13.986 5.72724C13.986 5.37169 14.2716 5.08312 14.6235 5.08312ZM6.69545 0C9.1885 0 11.2157 2.04915 11.2157 4.56723C11.2157 7.0853 9.1885 9.13445 6.69545 9.13445H6.6691C5.46295 9.13016 4.33245 8.6518 3.485 7.78954C2.6367 6.92642 2.17175 5.78075 2.17597 4.56465C2.17597 2.04915 4.20325 0 6.69545 0ZM6.69545 1.28824C4.90705 1.28824 3.45097 2.7594 3.45097 4.56723C3.4476 5.44237 3.7808 6.26255 4.38855 6.88176C4.84572 7.34626 5.41705 7.65519 6.03911 7.78163C6.38788 7.85251 6.68215 8.12696 6.69545 8.48261C6.69545 8.13114 6.98324 7.85277 7.32786 7.7837C8.81551 7.48555 9.94075 6.15647 9.94075 4.56723C9.94075 2.7594 8.4847 1.28824 6.69545 1.28824Z" fill="white"/>
</svg>
