<svg width="16" height="16" viewBox="0 0 16 16" fill="none" xmlns="http://www.w3.org/2000/svg">
<path d="M13.5994 5.90002H7.29941C6.52622 5.90002 5.89941 6.52683 5.89941 7.30002V13.6C5.89941 14.3732 6.52622 15 7.29941 15H13.5994C14.3726 15 14.9994 14.3732 14.9994 13.6V7.30002C14.9994 6.52683 14.3726 5.90002 13.5994 5.90002Z" stroke="white" stroke-width="1.6" stroke-linecap="round" stroke-linejoin="round"/>
<path d="M3.1 10.1H2.4C2.0287 10.1 1.6726 9.9525 1.41005 9.68995C1.1475 9.4274 1 9.0713 1 8.7V2.4C1 2.0287 1.1475 1.6726 1.41005 1.41005C1.6726 1.1475 2.0287 1 2.4 1H8.7C9.0713 1 9.4274 1.1475 9.68995 1.41005C9.9525 1.6726 10.1 2.0287 10.1 2.4V3.1" stroke="white" stroke-width="1.6" stroke-linecap="round" stroke-linejoin="round"/>
</svg>
