<svg width="18" height="18" viewBox="0 0 18 18" fill="none" xmlns="http://www.w3.org/2000/svg">
<path d="M15.4 6.6001H8.19998C7.31632 6.6001 6.59998 7.31644 6.59998 8.2001V15.4001C6.59998 16.2838 7.31632 17.0001 8.19998 17.0001H15.4C16.2836 17.0001 17 16.2838 17 15.4001V8.2001C17 7.31644 16.2836 6.6001 15.4 6.6001Z" stroke="white" stroke-linecap="round" stroke-linejoin="round"/>
<path d="M6.378 11.4H2.6C2.17565 11.4 1.76869 11.2314 1.46863 10.9314C1.16857 10.6313 1 10.2243 1 9.8V2.6C1 2.17565 1.16857 1.76869 1.46863 1.46863C1.76869 1.16857 2.17565 1 2.6 1H9.8C10.2243 1 10.6313 1.16857 10.9314 1.46863C11.2314 1.76869 11.4 2.17565 11.4 2.6V4.30229" stroke="white" stroke-linecap="round" stroke-linejoin="round"/>
</svg>
