<svg width="16" height="18" viewBox="0 0 16 18" fill="none" xmlns="http://www.w3.org/2000/svg">
<path d="M1 4.34888H2.5814H15.2326" stroke="#FE0135" stroke-width="1.3" stroke-linecap="round" stroke-linejoin="round"/>
<path d="M13.6512 4.34884V15.4186C13.6512 15.838 13.4846 16.2403 13.188 16.5368C12.8914 16.8334 12.4892 17 12.0698 17H4.16282C3.7434 17 3.34117 16.8334 3.0446 16.5368C2.74803 16.2403 2.58142 15.838 2.58142 15.4186V4.34884M4.95351 4.34884V2.76744C4.95351 2.34803 5.12012 1.9458 5.41669 1.64923C5.71326 1.35266 6.1155 1 6.53491 1H9.6977C10.1171 1 10.5193 1.35266 10.8159 1.64923C11.1125 1.9458 11.2791 2.34803 11.2791 2.76744V4.34884" stroke="#FE0135" stroke-width="1.3" stroke-linecap="round" stroke-linejoin="round"/>
<path d="M10 9L6 13M6 9L10 13" stroke="#FE0135" stroke-width="1.3" stroke-linecap="round" stroke-linejoin="round"/>
</svg>
