<svg width="17" height="16" viewBox="0 0 17 16" fill="none" xmlns="http://www.w3.org/2000/svg">
<path d="M8.35925 15H15.7185" stroke="white" stroke-width="2" stroke-linecap="round" stroke-linejoin="round"/>
<path d="M12.0389 1.50805C12.3642 1.18275 12.8054 1 13.2654 1C13.4932 1 13.7187 1.04487 13.9292 1.13204C14.1396 1.21921 14.3309 1.34698 14.4919 1.50805C14.653 1.66912 14.7808 1.86034 14.8679 2.07079C14.9551 2.28124 15 2.5068 15 2.73459C15 2.96238 14.9551 3.18794 14.8679 3.39839C14.7808 3.60884 14.653 3.80006 14.4919 3.96113L6.22935 12.2237C4.94776 13.5053 3.34196 14.4145 1.58363 14.8541L1 15L1.14591 14.4164C1.58549 12.658 2.49468 11.0522 3.77627 9.77064L12.0389 1.50805Z" stroke="white" stroke-width="2" stroke-linecap="round" stroke-linejoin="round"/>
</svg>
