<svg width="133" height="107" viewBox="0 0 133 107" fill="none" xmlns="http://www.w3.org/2000/svg">
<path d="M98.1488 79.0791C101.985 86.944 100.479 93.7062 96.1172 98.5225C91.7277 103.369 84.3999 106.291 76.5501 106.291C70.7626 106.291 66.043 104.177 60.5219 101.61C60.3647 101.537 60.2069 101.463 60.0485 101.389C54.6512 98.8779 48.4973 96.0143 39.9714 94.4553C32.9134 93.1646 27.3335 94.8011 22.5645 96.1998C21.3574 96.5538 20.2024 96.8925 19.0884 97.1647C16.3146 97.8426 13.8052 98.1148 11.3049 97.3075C8.80715 96.5009 6.24009 94.5905 3.41778 90.7381C-2.23545 83.0217 1.33617 74.8375 5.63774 67.4963C6.27464 66.4094 6.9293 65.3385 7.56858 64.2928C9.05696 61.8582 10.4619 59.56 11.3652 57.5127C12.0145 56.0412 12.4336 54.6408 12.4276 53.3595C12.4215 52.0537 11.9728 50.8857 10.9296 49.9241C7.20206 46.4877 5.37951 43.1112 4.85951 39.9001C4.33938 36.6882 5.11206 33.5775 6.69411 30.654C9.87076 24.7838 16.2592 19.7659 21.6247 16.448L21.3618 16.0228L21.6247 16.448C23.7734 15.1193 27.0774 14.76 31.107 14.945C35.0625 15.1267 39.6065 15.8246 44.2415 16.5365L44.4281 16.5652C49.1134 17.2847 53.8823 18.0112 58.1538 18.2029C62.4115 18.3939 66.2626 18.0599 69.071 16.5902C85.7925 7.83982 98.4583 4.90065 107.879 5.56492C117.275 6.2274 123.472 10.4744 127.303 16.1954C131.147 21.9364 132.628 29.1964 132.491 35.8798C132.355 42.5775 130.598 48.5962 128.077 51.8688C126.013 54.5482 122.678 56.559 118.878 58.3183C116.984 59.1951 114.991 60.0023 113.002 60.7976C112.802 60.8777 112.602 60.9576 112.402 61.0374C110.618 61.7496 108.847 62.4572 107.178 63.1966C103.488 64.8325 100.198 66.6668 98.349 69.1699C97.4141 70.4353 96.8455 71.8729 96.778 73.5301C96.7108 75.1811 97.1421 77.0153 98.1488 79.0791Z" fill="#0029FF" stroke="black"/>
<path d="M58.0691 78.8041C58.0691 78.8041 61.7353 77.0795 63.104 75.8796C64.4727 74.6798 66.1744 71.699 66.1744 71.699C66.1744 71.699 84.8654 85.1975 97.0526 83.272C99.8605 82.8284 105.332 80.962 105.681 77.6732C106.634 68.6932 93.4515 66.3986 96.3309 61.8447C98.0887 59.0649 103.549 63.202 103.549 63.202L126.196 74.3414C126.196 74.3414 118.372 93.6275 99.385 94.4002C76.0289 95.351 58.0691 78.8041 58.0691 78.8041Z" fill="white"/>
<path fill-rule="evenodd" clip-rule="evenodd" d="M40.114 3.27596C39.9014 3.19242 38.7598 1.79471 37.3107 1.54037C36.6523 1.42473 37.2498 2.26318 36.5252 2.27088C34.3666 2.2933 30.8587 1.8877 30.2089 2.27088C29.7259 2.55468 30.7895 3.54592 30.2089 3.59142C24.7302 4.02098 16.3721 9.49112 14.5589 12.145C13.9816 12.9896 18.6491 11.5567 17.9054 11.9742C17.0707 12.4428 16.145 15.5115 15.5917 17.8813C15.2085 19.5134 14.9671 21.6137 14.882 23.8986C14.811 25.8712 14.8394 26.1977 15.1232 27.2762C15.4496 28.4824 15.7051 28.8372 16.145 28.6669C16.3013 28.6101 16.3721 28.3973 16.3721 27.9999C16.3721 27.6877 16.5424 26.751 16.7552 25.9136L17.1243 24.4095L17.2804 25.0339C17.4792 25.7576 18.6427 27.9999 19.6929 29.6319C19.7496 29.7185 19.9932 29.6084 20.213 29.0773C20.4133 28.5932 20.332 27.82 20.6723 26.9913C21.447 25.1036 22.9684 22.6493 24.7302 20.6847C27.3339 17.7813 28.1976 14.4209 30.6382 11.7235C35.1932 6.68977 40.9096 3.58835 40.114 3.27596Z" fill="white"/>
<path fill-rule="evenodd" clip-rule="evenodd" d="M17.9701 12.6591C17.2393 13.2467 16.1547 18.0123 16.1362 18.0919C15.753 19.724 15.3837 25.3913 15.7612 26.4643C16.1388 27.5373 17.1958 23.6695 17.1958 23.6695C17.1958 23.6695 18.7938 27.8187 20.2058 28.9563C20.266 29.0049 18.5276 23.8228 17.9701 20.7976C17.2341 16.8043 18.3858 12.3248 17.9701 12.6591Z" fill="#E7EAEE"/>
<path fill-rule="evenodd" clip-rule="evenodd" d="M45.2035 96.1224C46.5658 95.8243 48.8646 94.7865 49.7448 94.4316C50.6248 94.0766 53.3068 90.2898 54.2719 86.0179C54.9672 82.8675 55.322 78.3831 54.9245 77.6308C54.8658 77.5242 54.6513 75.485 55.2226 76.1509C56.4928 77.6308 58.0007 79.9544 62.7581 75.7908C64.0541 74.6566 65.7714 73.1932 65.3192 71.8993C64.054 68.279 58.5692 60.9893 57.7331 60.4371C56.7333 59.7767 51.6804 60.3379 44.1606 58.1183C35.6323 55.6012 32.0813 48.1892 28.744 49.1541C26.0451 49.9343 19.5787 54.7293 17.9558 57.7659C10.2942 72.1017 19.5787 82.1468 21.693 85.032L23.7461 85.9188L23.8171 87.7493L23.9162 88.8989C24.1009 91.0985 24.1717 91.2972 25.1651 92.0352C27.6486 93.9227 32.5447 95.6823 36.9724 96.3068C39.0303 96.5906 43.5006 96.4913 45.2035 96.1224Z" fill="white"/>
<path fill-rule="evenodd" clip-rule="evenodd" d="M24.5528 87.0791L24.6522 88.2284C24.8369 90.4283 24.9077 90.6268 25.9011 91.3648C27.3663 92.4783 29.671 93.5473 32.2237 94.3651C33.9983 94.9334 35.8928 95.3803 37.7084 95.6364C39.7663 95.9202 44.2364 95.8208 45.9395 95.452C46.7812 95.2695 39.8573 89.8299 35.7783 91.3648C32.6458 92.5436 25.2629 83.5525 28.2647 81.2036C31.6322 78.5684 25.4616 68.1755 25.2629 65.9192C25.0642 63.6628 24.2818 63.1237 24.2589 63.2029C24.2361 63.282 24.2361 63.552 24.2974 64.2025C24.5623 67.006 24.5528 87.0791 24.5528 87.0791Z" fill="#E7EAEE"/>
<path fill-rule="evenodd" clip-rule="evenodd" d="M23.8139 65.2754C24.1118 65.2173 24.4002 65.4119 24.4583 65.71C25.5293 71.2124 30.0599 74.9378 38.161 76.8859C46.3105 78.8455 51.8615 78.7398 54.7862 76.6481C55.0331 76.4715 54.8491 77.9836 54.6682 78.0996C52.7607 79.3228 46.2749 81.1481 38.5349 79.4984C28.6386 77.3891 23.992 69.0677 23.3793 65.9199C23.3215 65.6221 23.5158 65.3334 23.8139 65.2754Z" fill="#1673FF"/>
<path fill-rule="evenodd" clip-rule="evenodd" d="M19.6871 55.3467C19.9507 55.1959 29.7797 66.4609 43.2688 69.0107C56.7578 71.5606 60.0237 69.9391 60.5486 66.4609C60.5939 66.1608 60.874 65.9542 61.1741 65.9995C61.4744 66.0447 61.6808 66.3248 61.6355 66.6249C60.9703 71.033 54.7285 72.0814 43.0839 70.0943C31.5854 68.1323 23.7022 63.4705 19.4831 56.0966C19.3323 55.8332 19.4237 55.4973 19.6871 55.3467Z" fill="#1673FF"/>
<path fill-rule="evenodd" clip-rule="evenodd" d="M76.3025 54.7224C75.9334 54.5947 75.5361 54.3109 75.2807 53.9844L74.8548 53.4592L76.3592 51.9692C78.6725 49.6985 80.4463 47.3711 81.979 44.6039C82.4899 43.6814 83.7812 40.6018 83.7812 40.3039C83.7812 40.2045 83.9375 39.8071 84.122 39.3955C84.4058 38.7996 84.6186 38.5725 85.2288 38.2319C85.9525 37.8061 86.7758 37.6643 87.1304 37.9055C87.8117 38.3597 87.8117 39.793 87.1304 42.2622C86.3783 44.9727 85.3708 46.917 83.2846 49.7128C82.9582 50.1384 82.3479 50.9758 81.908 51.5577C80.7301 53.1187 79.9638 53.8708 78.9279 54.4527C77.9062 55.0203 77.31 55.0913 76.3025 54.7224ZM86.4918 53.4452L87.5136 53.8993C87.7255 53.9969 90.063 55.1201 92.8705 56.4692C97.3971 58.6442 103.146 61.4065 103.181 61.4065C103.238 61.4065 103.504 60.7907 103.564 60.0725C103.706 58.5258 104.231 56.4252 104.841 54.9636C105.125 54.3109 105.352 53.4948 105.352 53.4241C105.352 53.3915 105.122 53.2985 104.744 53.1462C104.294 52.9648 103.636 52.6995 102.911 52.3524C99.3352 50.6352 92.3387 47.13 91.473 46.6048C90.6216 46.1082 90.4512 46.0655 90.4512 46.392C90.4512 46.8178 89.5855 48.7904 88.9185 49.8546C88.5639 50.4365 87.8684 51.4867 87.3718 52.182L86.4918 53.4452ZM102.94 58.852C103.347 59.0879 102.642 59.4339 102.472 59.4906C101.469 59.5759 100.288 59.3873 99.3209 58.8236C98.8153 58.4651 94.833 56.2527 92.1914 54.7851C90.9839 54.1143 90.0564 53.599 89.8695 53.4878C89.2734 53.133 88.7057 52.7498 88.6064 52.6362C88.3085 52.253 88.5923 52.0828 89.4294 52.1536C89.9329 52.1963 102.061 58.3426 102.94 58.852ZM45.2515 96.0054C46.3463 95.7657 48.0456 95.0486 49.1276 94.592C49.3923 94.4804 49.6198 94.3843 49.7928 94.3146C50.673 93.9596 53.3548 90.1727 54.3199 85.9009C55.0152 82.7504 55.37 78.266 54.9728 77.5138C54.7332 77.0783 56.1564 78.5395 57.2164 79.6277C57.5378 79.9577 57.8258 80.2533 58.0239 80.4514C64.2113 86.5964 73.4215 91.535 82.9865 93.8481C87.755 95.0119 91.1468 95.4235 95.7022 95.4235C103.351 95.4235 109.383 93.9191 114.861 90.6126C115.121 90.4554 115.365 90.3112 115.597 90.1736C117.506 89.043 118.644 88.3694 121.758 84.865C125.25 80.9339 128.357 71.8088 129.393 68.6584C129.847 67.2391 130.954 61.5946 130.954 60.1862C130.954 58.5185 130.372 57.7311 129.577 56.9221C128.172 55.5455 126.27 55.0489 124.695 55.6448L123.957 55.9286L123.73 55.1766C123.404 54.0411 122.723 53.133 121.673 52.4517C120.112 51.4156 119.884 51.3449 118.479 51.3449C117.387 51.3449 117.089 51.4016 116.393 51.728L115.584 52.0969L115.414 51.586C115.088 50.5359 113.993 49.072 113.143 48.6484C112.39 48.2729 111.086 48.2384 110.177 48.4072C108.191 48.7761 106.772 49.6985 106.19 50.99C106.019 51.3873 105.806 51.6997 105.721 51.6997C105.65 51.6997 102.855 50.9188 99.5196 49.4429C98.9571 49.1931 98.4286 48.9588 97.9324 48.7389C91.9437 46.0844 90.6456 45.5091 90.7636 44.7883C90.8628 44.178 90.8344 43.8375 90.6642 43.3123C90.3661 42.4325 90.0256 42.1914 89.0606 42.1914C88.2942 42.1914 88.2942 42.1914 88.3793 41.8082C88.8335 39.6369 88.8194 38.388 88.3369 37.5933C88.0104 37.0681 87.6272 36.8553 86.7472 36.7276C86.2363 36.6566 85.9952 36.6993 85.4276 37.0114C85.0444 37.2102 84.7179 37.352 84.6896 37.3236C84.6612 37.2952 84.7606 36.5148 84.9167 35.5922C86.0803 28.7661 85.1814 22.8849 82.2153 16.6407C82.187 16.5809 82.154 16.5103 82.1164 16.4294C81.2147 14.4935 77.5889 6.70942 67.22 2.78164C66.7506 2.60379 66.3066 2.43188 65.8797 2.26679C62.3476 0.899637 59.9995 -0.00937986 54.3342 7.30297e-05C47.984 0.0106251 45.8334 0.90843 41.6468 2.82429C41.0652 3.09381 40.5543 3.24989 40.5116 3.19317C40.469 3.12217 40.1995 2.95201 39.9297 2.81C39.6602 2.66821 39.0783 2.31339 38.6525 2.02958C37.432 1.2063 36.6799 0.865781 36.2967 0.950857C35.8568 1.06451 35.8568 1.43339 36.2967 1.60377C36.4812 1.67477 36.6942 1.91593 36.7793 2.15731C36.9637 2.66821 37.1765 2.72492 37.3042 2.2991C37.3612 2.14302 37.4462 2.02959 37.4889 2.05795C37.5049 2.06586 37.559 2.09136 37.6415 2.12983C37.849 2.227 38.2361 2.40836 38.6525 2.61127C39.2344 2.89508 39.873 3.19317 40.0434 3.26418C40.3555 3.37761 40.2562 3.46291 38.9079 4.25761C33.6429 7.35134 29.3572 12.1622 26.9588 17.64C26.5897 18.4631 26.2635 18.974 25.9227 19.258C25.057 19.9817 23.3542 22.0394 22.9567 22.8484C22.7439 23.2883 22.2898 23.9695 21.9349 24.3668C21.5944 24.7642 21.2253 25.2751 21.0976 25.4879C20.9842 25.715 20.8707 25.8711 20.8281 25.8427C20.7997 25.8001 20.8421 25.1047 20.9415 24.296C21.1545 22.4085 21.1545 21.9116 20.9842 21.8692C20.7287 21.7982 20.3598 22.7916 20.2035 24.0262C20.0901 24.7783 20.0617 25.9137 20.1327 27.0773L20.2178 28.9224L19.2103 27.2903C18.8638 26.7445 18.5227 26.1989 18.2802 25.8113V25.8111L18.28 25.8109L18.2795 25.81L18.2791 25.8095V25.8093L18.2789 25.8091L18.2784 25.8084C18.1248 25.5624 18.0109 25.3806 17.9614 25.3035C17.5923 24.7642 17.3795 23.9552 17.5356 23.6857C17.6207 23.5296 17.6066 23.4586 17.4646 23.4586C17.1667 23.4586 16.5848 24.4094 16.2017 25.5022C16.0172 26.0131 15.8326 26.4387 15.7758 26.4387C15.563 26.4387 15.6624 21.3583 15.8895 19.7263C16.3577 16.5048 17.5923 12.5311 18.1459 12.5311C18.2593 12.5311 18.3587 12.4744 18.3587 12.3893C18.3587 12.1338 17.9898 12.2332 17.6917 12.5597C17.0247 13.2834 16.1449 15.5114 15.5914 17.8814C15.2082 19.5135 14.9671 21.6138 14.8818 23.8985C14.811 25.8711 14.8393 26.1975 15.1231 27.2761C15.4496 28.4823 15.705 28.8371 16.1449 28.6669C16.301 28.61 16.372 28.3972 16.372 27.9997C16.372 27.6876 16.5422 26.7511 16.7552 25.9137L17.1241 24.4094L17.2802 25.0337C17.4789 25.7577 18.6425 28 19.6926 29.6318C20.4165 30.7389 20.4306 30.8097 20.672 32.5411C20.7997 33.5202 21.197 35.9021 22.1194 39.5659C22.9345 42.8032 27.5163 46.0143 28.6606 46.8163L28.6612 46.8167C28.8116 46.922 28.9024 46.9858 28.9171 47.0023C29.0591 47.1583 29.2579 47.2434 29.3713 47.201C29.499 47.1583 29.57 47.2151 29.57 47.3711C29.57 47.5131 29.6694 47.6976 29.7828 47.7827C29.9248 47.882 30.0242 48.2652 30.0526 48.9322C30.1236 50.2661 31.1168 52.8206 31.8831 53.658C32.3799 54.1972 33.4158 54.4243 34.5653 54.2256C35.3176 54.1121 35.5304 54.0271 35.4594 53.8567C35.417 53.7433 35.6865 53.8851 36.0556 54.1689C40.3696 57.4613 44.7406 59.4339 49.6508 60.2853C51.5526 60.6118 54.703 60.7962 56.4202 60.6685C57.9388 60.5693 57.9388 60.5693 57.8678 60.8672C57.7684 61.2647 57.8961 61.5058 59.9822 65.0395C61.6426 67.8353 61.7846 68.0198 63.6294 69.9073C67.5462 73.9518 71.8178 77.0882 76.6573 79.5149C81.2127 81.7854 88.4857 83.6729 95.1346 84.2691C101.783 84.865 106.559 78.7626 106.544 77.2016C106.516 75.0586 106.218 73.6537 105.494 72.2914C104.785 70.9715 104.316 70.5175 102.188 69.0983C99.8177 67.5231 98.356 66.2316 97.391 64.855C96.7807 63.9893 96.5536 63.0102 96.5536 62.485C96.5536 62.1445 96.9935 61.3781 97.6464 61.222C98.2424 61.0659 98.356 61.08 99.023 61.4065C99.4203 61.5909 100.456 62.0734 101.308 62.485C102.173 62.8824 103.011 63.2799 103.181 63.365C103.683 63.5044 103.895 64.4872 104.01 65.0199C104.036 65.1388 104.057 65.2353 104.075 65.2949C104.274 66.0329 105.214 66.9859 105.821 67.3101C106.886 67.8799 109.511 67.956 110.234 67.1756C110.419 66.9769 111.031 66.7324 111.157 66.8065C111.283 66.8806 111.738 67.4946 111.738 67.9914C111.753 68.8428 112.193 69.6235 113.129 70.4039C114.903 71.8798 116.28 72.2346 117.67 71.5817C118.394 71.2412 118.988 71.1082 118.988 71.1082C118.988 71.1082 119.579 71.8631 119.615 72.121C119.893 74.1373 122.879 74.9826 123.674 75.0679C123.856 75.0861 124.21 75.0081 124.57 74.9289C125.051 74.8232 125.543 74.715 125.646 74.8316C125.849 75.0604 122.254 81.0049 121.758 81.757C117.032 88.8528 107.836 93.1954 96.582 93.6496C89.2734 93.9475 80.2903 91.9039 72.4991 88.1859C67.5179 85.7875 63.1045 82.8498 58.3787 78.7343C57.5556 78.0247 56.6046 77.2159 56.2641 76.9321C55.9236 76.6623 55.1146 75.7399 54.4902 74.8885C53.4401 73.4692 52.8439 72.9583 52.8439 73.4409C52.8439 73.6537 53.5252 74.9593 54.3056 76.2508C54.618 76.7617 54.8165 77.1165 54.7457 77.0598C54.6747 77.0029 54.4476 78.0247 54.2348 79.3302C53.5392 83.5168 52.3897 87.6466 51.2261 90.2151C50.5875 91.606 49.363 92.6445 48.9939 92.9283C47.6316 93.9644 45.5922 94.43 42.768 94.7138C39.1917 95.0686 33.9267 94.2739 29.9105 92.7696C28.8463 92.3724 26.1072 91.2229 25.9227 91.0951C25.9117 91.0839 25.8489 90.6757 25.7612 90.1059C25.7363 89.9452 25.7097 89.7717 25.6816 89.5908C25.1707 86.0855 24.4611 72.5895 24.4611 66.3451C24.4611 63.7622 24.4327 63.1946 24.2623 63.1946C23.9075 63.1946 23.7657 63.5354 23.6096 64.7557C23.2548 67.5372 23.3258 82.0551 23.709 85.1062L23.7941 85.8017L23.3115 85.532C22.5736 85.1062 19.7636 82.2538 18.7845 80.9339C17.9555 79.8055 17.4628 78.3606 17.0942 77.2794C17.0084 77.0279 16.9295 76.7962 16.8543 76.5926C14.7967 70.8877 15.5204 64.4861 18.3587 58.7243C20.7714 53.814 23.7374 51.0894 28.08 49.7695C28.7894 49.5567 29.4139 49.3296 29.4849 49.2729C29.7545 49.0175 28.023 49.1452 27.0723 49.4431C23.9785 50.3939 20.743 52.991 18.5433 56.3118C15.4496 60.9666 14.0587 67.8353 15.0378 73.6963C15.2649 75.087 16.1874 78.0957 16.4428 78.3085C16.4655 78.3311 16.5822 78.576 16.7587 78.9464C17.247 79.9704 18.1923 81.9535 18.8696 82.8498C19.6926 83.971 22.1763 86.4118 23.2122 87.1641L23.8651 87.6323L23.9645 88.7818C24.1489 90.9815 24.2199 91.1802 25.2131 91.9182C27.6968 93.8057 32.5927 95.5653 37.0204 96.1898C39.0783 96.4736 43.5486 96.3742 45.2515 96.0054ZM93.2187 82.6794C84.9734 81.9557 75.0109 78.0244 67.8017 71.9506C64.7649 69.3819 60.8195 64.3868 59.2585 61.6195C58.932 61.0517 58.6908 60.7821 58.407 60.7111C58.1089 60.6261 58.3644 60.5408 59.5849 60.3423C64.7363 59.4623 69.7459 57.3193 73.7906 54.2682L74.3866 53.8283L74.557 54.2399C74.9401 55.1623 76.4159 56.099 77.5087 56.099C77.9486 56.099 79.4245 55.432 80.3186 54.8218L80.9289 54.4102L81.4255 54.9068C81.8797 55.361 81.9647 55.3894 82.8164 55.3894C83.7955 55.3894 84.9734 54.9495 85.6263 54.3249L85.9809 53.9985L86.9886 54.6657C87.5279 55.0489 89.0322 55.886 90.3235 56.553C92.2537 57.5464 94.2972 58.6959 96.2415 59.8881L96.5536 60.0868L96.2555 60.484C95.9434 60.9099 95.3619 61.7186 95.3619 62.9534C95.3619 64.3441 96.808 66.843 99.5763 68.559C101.751 69.9073 105.494 72.5591 105.352 76.4352C105.335 76.9035 104.813 78.0673 104.118 79.1174C103.664 79.7844 102.401 80.7779 101.251 81.3598C99.2925 82.3389 95.844 82.9065 93.2187 82.6794ZM17.5499 18.974C17.9331 19.0593 18.1885 19.187 18.1316 19.2437C17.9471 19.4282 16.968 19.3431 16.7409 19.116C16.3861 18.7755 16.4712 18.5341 16.968 18.4347C17.2234 18.3923 17.6066 18.1793 17.8194 17.9665C18.0324 17.7537 18.2169 17.6543 18.2169 17.7253C18.2169 17.9098 17.5073 18.5625 17.1524 18.7045C16.9253 18.8038 16.9964 18.8463 17.5499 18.974ZM23.1981 19.2011C23.6096 18.974 23.5243 18.8179 23.0418 18.8889C22.5595 18.9599 22.5311 18.9032 22.8433 18.4207C22.971 18.2362 23.0418 17.9665 23.0134 17.8245C22.971 17.64 22.8717 17.7253 22.6446 18.1793C22.4742 18.5058 22.233 18.7755 22.1194 18.7755C21.7648 18.7755 21.7362 19.0593 22.077 19.187C22.5168 19.3715 22.8574 19.3715 23.1981 19.2011ZM18.2879 11.4526C17.9471 11.5093 16.8829 11.9351 15.9462 12.4034C14.9954 12.8575 14.1864 13.2407 14.1297 13.2266C12.6821 13.0706 14.6973 10.6579 18.3587 8.18869C21.8639 5.81866 24.234 4.56978 26.4336 3.93116C27.8102 3.53369 29.3572 3.47698 29.7971 3.80343C30.0383 3.98787 29.9532 4.00216 28.903 4.01623C26.6324 4.01623 24.0069 5.18004 19.7353 8.03239C17.5215 9.50836 14.9528 11.6229 14.9528 11.9635C14.9528 12.0345 15.3643 11.8925 15.8752 11.6656C16.968 11.1688 18.0892 10.9133 18.5858 11.027C19.1109 11.1688 18.9973 11.3532 18.2879 11.4526ZM23.7798 12.6731C25.114 12.4034 25.1707 12.3893 25.1707 12.2473C25.1707 12.1765 24.6598 12.1055 24.0212 12.0771L22.8717 12.0345L23.9359 10.8282C24.5178 10.1613 25.199 9.49429 25.4402 9.33821C25.9654 8.99746 25.9937 8.7563 25.5679 8.61429L25.2417 8.51493L25.5963 8.3872C25.795 8.31642 26.1641 8.28784 26.4196 8.33048C26.8027 8.3872 26.8878 8.35884 26.8452 8.16011C26.8027 7.9616 26.6467 7.91896 25.9511 7.93325C23.9218 7.9616 23.0561 8.50086 24.6455 8.75631C25.0854 8.82731 25.4545 8.94075 25.4545 9.01175C25.4545 9.06847 25.3835 9.12519 25.2984 9.12519C25.0287 9.12519 22.7439 11.4385 22.4601 12.0061C22.0202 12.8435 22.2614 12.9712 23.7798 12.6731ZM33.1463 7.1669C32.7348 7.19526 32.6354 7.26605 32.6637 7.46478L32.6681 7.49379C32.684 7.59866 32.6932 7.65911 32.6697 7.67736C32.6378 7.70198 32.5466 7.65032 32.332 7.52853L32.2946 7.50743C32.0251 7.36541 31.9968 7.29463 32.1529 7.18097C32.2522 7.0959 32.5217 6.96817 32.7348 6.92552L33.132 6.82616L32.8341 6.51399C32.6778 6.32955 32.5927 6.15918 32.6354 6.10246C32.7488 5.98903 34.1397 6.14511 34.3382 6.30119C34.4235 6.37198 34.5512 6.35791 34.6363 6.27283C34.8351 6.0741 35.1046 6.23019 35.1046 6.54235C35.1046 6.71272 35.0621 6.72679 34.9344 6.59907C34.8208 6.48563 34.7214 6.48563 34.5937 6.585C34.4802 6.68436 34.3952 6.68437 34.3242 6.57071C34.2815 6.4997 34.012 6.42892 33.7282 6.42892C33.4661 6.42892 33.3424 6.42892 33.3171 6.47882C33.2945 6.52345 33.3512 6.6083 33.4585 6.76944C33.6849 7.12315 33.6715 7.12425 33.1511 7.16646L33.1463 7.1669ZM30.989 3.3919C30.989 3.20746 30.8189 2.88101 30.6059 2.66821L30.2086 2.27074L32.3373 2.35582C33.5152 2.41276 34.8491 2.54048 35.3176 2.66821C35.7858 2.78164 36.3251 2.86672 36.5238 2.86672C36.8219 2.86672 36.765 2.81 36.2117 2.5119C35.2466 2.0153 34.012 1.77414 31.642 1.60377C28.8037 1.40504 27.3703 1.67477 27.6399 2.38418C27.6825 2.52619 27.9096 2.5972 28.2501 2.5972C28.9455 2.5972 30.0809 3.00873 30.4641 3.3919C30.8756 3.80343 30.989 3.80343 30.989 3.3919ZM24.0636 40.9709C25.2131 42.4468 26.7317 44.1213 27.4414 44.6889C27.867 45.0297 28.2361 45.3135 28.2644 45.3135C28.2785 45.3135 27.9663 44.6606 27.5691 43.8659C25.9654 40.6728 25.0287 37.494 24.5888 33.8326C24.4894 33.0236 24.3333 32.3424 24.163 32.0586C23.8224 31.4909 23.8224 30.753 24.1773 30.0576C24.3617 29.6887 24.4611 29.2203 24.4611 28.7094V27.929L23.7798 28.6384C23.1128 29.3339 22.4742 29.6177 22.4742 29.1919C22.4742 28.8797 23.5243 27.3754 24.0779 26.9072C24.5178 26.5381 24.5745 26.4103 24.7165 25.3035C24.8159 24.6365 25.043 23.4586 25.2274 22.678C25.4261 21.8976 25.5396 21.2306 25.5112 21.2022C25.4118 21.1029 22.077 24.9331 21.6228 26.1549C21.523 26.4233 21.2539 26.8929 21.0409 27.1767L20.672 27.6504C20.672 27.6504 20.7865 28.3139 20.9131 29.1475C21.0411 29.9899 21.1011 30.569 21.1547 31.0847C21.2262 31.7745 21.286 32.3512 21.4808 33.2934C21.7079 34.4569 21.9349 35.4645 21.9917 35.5355C22.0343 35.6208 22.2187 36.2734 22.4034 36.9971C22.8007 38.6008 23.4676 40.1902 24.0636 40.9709ZM81.6526 54.3959L81.3547 54.0979C81.3547 54.0979 86.301 47.8134 87.1873 45.4979C87.8636 43.7309 88.2617 43.2297 88.7987 43.2297C89.0993 43.2297 89.3444 43.2983 89.4578 43.4686C89.6565 43.7665 89.848 44.1356 89.5926 45.3986C89.167 47.4421 88.514 48.7904 86.5555 51.6997C86.1016 52.3666 85.5197 53.1046 85.2642 53.3601C84.6683 53.9134 83.3273 54.481 82.5466 54.6087C82.05 54.6797 81.908 54.6514 81.6526 54.3959Z" fill="#00160A"/>
<path d="M120.949 68.2793C122.714 63.4689 122.447 62.444 122.141 62.3437C122.141 62.3437 121.467 62.7269 121.169 63.5357C120.615 65.0543 118.721 69.0278 118.011 69.7374C117.174 70.5748 117.174 70.5748 116.322 70.5748C115.471 70.5748 113.015 69.2925 112.681 68.0285C112.146 66.006 114.449 58.9803 114.506 58.583L114.123 58.3133C113.867 58.5547 110.545 68.6306 106.176 66.0051C105.675 65.7044 104.614 64.288 104.529 63.5357C104.056 61.3503 106.226 53.7082 106.595 52.1386C106.925 50.7334 108.645 49.4296 110.759 49.4296C114.009 49.4296 113.573 52.2703 115.028 53.2712C115.673 53.7148 116.734 52.9106 117.06 52.8495C118.891 52.509 119.593 52.9056 120.935 53.9707C121.97 54.7929 122.737 56.4201 123.581 56.9934C124.049 57.312 124.547 56.8767 124.71 56.7949C125.377 56.4597 126.81 56.7096 127.207 56.9934C127.79 57.2475 129.217 58.6198 129.443 59.4177C130.465 63.0349 127.237 71.054 126.019 72.5584C124.002 75.0484 119.183 73.0897 120.949 68.2793Z" fill="white"/>
<path fill-rule="evenodd" clip-rule="evenodd" d="M39.3623 55.0978C43.2507 57.5531 47.2603 59.1566 51.83 59.5965C55.4346 59.9372 60.2947 59.4687 63.7857 58.3335C66.7233 57.3827 70.6971 54.7487 73.3509 52.5207C78.5023 48.2064 81.7521 41.4676 83.1714 34.3153C83.3699 33.3076 83.673 30.7748 83.6587 28.263C83.6587 25.3394 82.3722 17.3506 78.4739 12.7442C70.4337 3.24341 57.2175 -1.03633 46.1101 2.62062C42.1032 3.93963 37.8371 6.32967 34.6156 9.45176C30.5568 13.4112 27.5624 18.804 26.3705 24.3102C25.1216 30.1287 26.7462 37.0826 29.5702 42.7875C31.8266 47.3288 35.5448 52.6712 39.3623 55.0978ZM77.2534 37.9483C74.5855 45.9663 67.6317 51.9552 58.8897 53.7717C57.5558 54.0413 56.6334 54.1406 54.7599 54.169C53.4403 54.2116 52.1204 54.1973 51.8509 54.169C45.7342 53.431 41.0794 51.1746 36.7937 46.8887C34.9203 45.0014 34.1256 43.9796 32.962 41.9644C31.1312 38.7713 30.1521 35.5072 29.854 31.5761C28.8322 18.1086 38.4682 6.88299 52.0353 5.71941C57.3571 5.26523 63.2607 6.89728 67.7451 10.0761C69.4055 11.254 72.4142 14.2343 73.3509 15.6249C73.7341 16.1785 77.4521 21.6139 78.105 24.736C78.9422 28.7948 78.6159 33.8752 77.2534 37.9483Z" fill="white"/>
<path fill-rule="evenodd" clip-rule="evenodd" d="M83.6636 28.2628C83.6636 37.7882 79.1579 48.2022 73.3428 52.6497C70.5685 54.7715 66.9428 57.3407 63.7855 58.3335C59.1584 59.7882 51.8296 59.5965 51.8296 59.5965C51.8296 59.5965 59.3066 58.5969 62.0774 57.4819C70.0229 54.2841 74.3602 49.3757 77.0387 44.6662C82.3255 35.3696 83.6636 28.0315 83.6636 28.2628Z" fill="#E7EAEE"/>
<path fill-rule="evenodd" clip-rule="evenodd" d="M51.9926 52.4661C48.2036 51.9836 44.4428 50.6353 41.4058 48.6344C39.6036 47.4565 36.8788 44.6892 35.5589 42.7167C33.6716 39.8784 32.4227 36.8414 31.8125 33.5772C31.3726 31.2072 31.3866 27.5602 31.8265 25.4456C32.2807 23.2885 32.8626 21.6422 33.8985 19.5562C35.1049 17.1435 36.3822 15.3697 38.2978 13.4538C41.5619 10.1897 45.351 8.11776 49.864 7.12432C51.3256 6.81216 56.619 6.55671 56.8035 6.79809C56.8461 6.86888 57.1299 7.05354 57.428 7.20962C57.7259 7.37977 58.5208 7.97596 59.1735 8.55765C60.1527 9.40929 60.5928 9.94854 61.4442 11.2825C62.0261 12.1909 62.4943 13.0139 62.4943 13.0849C62.4943 13.241 62.9485 13.5248 63.204 13.5248C63.5588 13.5248 63.7999 12.4604 63.8709 10.5872C63.9134 9.55108 63.9987 8.69966 64.0554 8.69966C64.2541 8.69966 66.4395 9.90589 67.4613 10.5872C69.4624 11.9211 71.4634 13.7943 72.9393 15.7528C73.6063 16.6326 73.7057 16.8597 73.7057 17.399C73.7057 17.8958 73.8475 18.279 74.2874 19.0453C75.3945 20.9752 76.2599 23.402 76.7851 26.0842C77.1256 27.8866 77.1256 31.2925 76.7708 33.18C75.806 38.374 72.9393 43.5397 69.207 46.8179C66.0423 49.5852 62.6788 51.2882 58.7053 52.1256C57.3427 52.4234 53.2558 52.6222 51.9926 52.4661ZM41.8457 42.7591C41.9734 42.6173 42.0587 42.4043 42.0161 42.3051C42.0033 42.2752 41.8255 42.1917 41.5654 42.0695C40.9591 41.7843 39.905 41.2888 39.4482 40.7724C37.6317 38.7005 36.9647 37.1535 36.5532 33.9604C36.1557 30.8526 36.4897 28.7514 37.2059 25.3746C37.5554 23.7273 38.4842 22.3666 39.062 21.5202C39.455 20.9444 39.6856 20.6066 39.4616 20.578C38.9081 20.4927 38.823 20.5353 38.2411 21.0889C36.9922 22.2808 36.4246 23.2316 35.8286 25.0624C34.9062 27.929 34.7279 35.6762 36.5532 39.1687C38.3785 42.6613 41.5193 43.1282 41.8457 42.7591ZM62.0261 30.8383C61.7849 33.0428 60.7629 36.2311 59.571 37.6218C59.0174 38.2747 56.9857 39.3958 55.2708 39.1687C53.6143 38.9493 52.3191 38.1753 51.2122 36.5149C50.2612 35.0816 49.7703 33.3418 49.4381 31.1505C48.8648 27.3667 51.3683 22.9621 52.4468 21.8693C53.5396 20.7481 54.32 20.3509 55.3134 20.3366C56.2785 20.3366 56.9028 20.5496 57.8822 21.245C59.6703 22.4938 62.4943 26.5544 62.0261 30.8383ZM42.8959 19.102C43.1797 18.7756 43.2223 18.6195 43.1372 18.0092C43.0805 17.4416 42.9669 17.2145 42.6688 16.9734C42.1438 16.5475 41.4909 16.5475 41.0086 17.0017C40.6678 17.3282 40.6254 17.4416 40.6678 18.222C40.7105 19.0594 40.7389 19.1161 41.2071 19.3715C41.8316 19.7123 42.4419 19.6129 42.8959 19.102ZM51.7515 10.3458C49.197 12.1766 48.0901 12.9286 46.9406 13.6382C46.0322 14.2059 45.7484 14.2201 45.7484 13.7093C45.7484 13.4395 45.9472 13.1416 46.4581 12.6732L47.1675 12.0205L45.7911 11.836C44.2441 11.6373 42.7398 11.2115 42.4133 10.885C41.8741 10.3317 42.3425 10.204 43.8752 10.4878C44.5563 10.6012 45.8762 10.7432 46.8129 10.7716L48.5157 10.8426L49.7503 9.94854C52.4609 7.99003 55.2708 6.88317 56.619 7.22369C57.4564 7.42242 57.357 7.64951 56.4062 7.76294C55.3134 7.89067 54.6465 8.25977 51.7515 10.3458Z" fill="white" fill-opacity="0.86"/>
<path d="M55.3987 37.2244C55.3987 37.1534 55.4838 37.0826 55.5974 37.0826C55.7109 37.0826 55.8529 37.1534 55.8953 37.2244C55.9379 37.3095 55.8529 37.3665 55.6968 37.3665C55.5264 37.3665 55.3987 37.3095 55.3987 37.2244Z" fill="white"/>
<path d="M56.2502 37.0963C56.2502 36.9403 56.6048 36.7985 57.0023 36.7985C57.3145 36.8125 57.3145 36.8125 57.0449 37.0113C56.7326 37.2524 56.2502 37.2951 56.2502 37.0963Z" fill="white"/>
<path d="M54.0505 36.7277C54.0079 36.6143 53.9511 36.4156 53.9085 36.3019C53.8658 36.1601 53.9368 36.0891 54.1213 36.0891C54.2774 36.0891 54.4051 36.1742 54.4051 36.2878C54.4051 36.4013 54.4477 36.5857 54.4904 36.7134C54.5471 36.8697 54.5045 36.9405 54.3484 36.9405C54.2207 36.9405 54.0789 36.8412 54.0505 36.7277Z" fill="white"/>
<path d="M54.8026 36.3723C54.7316 35.9467 54.8876 35.8047 55.3985 35.8047C55.5546 35.8047 55.6824 35.9467 55.7393 36.1879C55.8527 36.5994 55.6683 36.7981 55.1715 36.7981C54.9444 36.7981 54.8452 36.6988 54.8026 36.3723Z" fill="white"/>
<path d="M53.355 36.4436C53.0855 36.2306 53.0855 36.2306 53.3833 36.2306C53.568 36.2306 53.6957 36.3159 53.6957 36.4436C53.6957 36.6991 53.6957 36.6991 53.355 36.4436Z" fill="white"/>
<path d="M56.2075 36.4292C56.023 36.2447 56.1081 35.6914 56.3352 35.6061C56.7467 35.45 56.9311 35.521 57.0164 35.8899C57.0732 36.1029 57.1015 36.2874 57.0732 36.3015C56.9595 36.4292 56.2925 36.5145 56.2075 36.4292Z" fill="white"/>
<path d="M57.4706 36.1319C57.4281 36.0895 57.3855 35.9051 57.3855 35.7347C57.3855 35.4933 57.4991 35.3942 57.8397 35.3232C58.1378 35.2664 58.3222 35.2948 58.4073 35.4082C58.5493 35.6353 58.5493 35.9191 58.4216 35.9901C58.1661 36.1319 57.5699 36.2172 57.4706 36.1319Z" fill="white"/>
<path d="M52.7024 35.6919C52.7024 35.5215 52.8301 35.3797 53.0146 35.3371C53.3837 35.2377 53.3694 35.2234 53.4404 35.5925C53.4687 35.8053 53.3977 35.8906 53.0996 35.919C52.7875 35.9614 52.7024 35.9047 52.7024 35.6919Z" fill="white"/>
<path d="M53.7808 35.7056C53.5821 35.4928 53.7098 35.0953 53.9793 35.0953C54.164 35.0953 54.2634 35.1947 54.2634 35.3651C54.2634 35.6348 53.9369 35.8617 53.7808 35.7056Z" fill="white"/>
<path d="M54.6323 35.2804C54.5188 35.0106 54.76 34.8119 55.2282 34.8119C55.4412 34.8119 55.5406 34.8972 55.5406 35.0816C55.5406 35.2377 55.4129 35.3797 55.2282 35.4364C54.76 35.5499 54.7316 35.5499 54.6323 35.2804Z" fill="white"/>
<path d="M58.7335 35.2373C58.776 35.1663 58.847 35.0953 58.8896 35.0953C58.9323 35.0953 58.918 35.1663 58.8753 35.2373C58.8329 35.3224 58.7619 35.3794 58.7192 35.3794C58.6768 35.3794 58.6909 35.3224 58.7335 35.2373Z" fill="white"/>
<path d="M55.9095 34.9962C55.7961 34.7124 55.9379 34.5704 56.3921 34.4994C56.6475 34.471 56.7612 34.528 56.7895 34.7265C56.8889 35.1949 56.0799 35.4504 55.9095 34.9962Z" fill="white"/>
<path d="M52.5037 34.7552C52.376 34.2869 52.4043 34.2443 52.7734 34.2443C52.972 34.2443 53.128 34.3012 53.128 34.372C53.128 34.443 53.1707 34.5991 53.2133 34.7127C53.2558 34.8545 53.1707 34.9398 52.9295 34.9822C52.6598 35.039 52.5604 34.9822 52.5037 34.7552Z" fill="white"/>
<path d="M57.2434 34.5987C57.2434 34.3433 57.3428 34.2296 57.6125 34.1586C58.0097 34.0592 58.2368 34.258 58.2368 34.7121C58.2368 34.8966 58.1234 34.9533 57.7402 34.9533C57.3001 34.9533 57.2434 34.9109 57.2434 34.5987Z" fill="white"/>
<path d="M52.0778 34.599C52.0353 34.4856 52.0637 34.3862 52.1345 34.3862C52.2198 34.3862 52.2765 34.4856 52.2765 34.599C52.2765 34.7127 52.2481 34.8121 52.2198 34.8121C52.1914 34.8121 52.1345 34.7127 52.0778 34.599Z" fill="white"/>
<path d="M53.5112 34.7127C53.3127 34.5283 53.4262 34.1308 53.6816 34.0598C53.8377 34.0174 53.9938 34.0315 54.0364 34.0741C54.2068 34.2302 54.1074 34.6417 53.8944 34.7268C53.6249 34.8262 53.6249 34.8262 53.5112 34.7127Z" fill="white"/>
<path d="M58.5776 34.6134C58.4213 34.2017 58.5916 33.8895 58.9891 33.8471C59.287 33.8044 59.3723 33.8611 59.3723 34.0882C59.3723 34.5565 59.2162 34.8119 58.9321 34.8119C58.7761 34.8119 58.62 34.7269 58.5776 34.6134Z" fill="white"/>
<path d="M54.5043 34.4286C54.3342 34.2726 54.3909 33.9887 54.632 33.9037C54.9018 33.8043 55.4694 34.0881 55.3133 34.2442C55.1146 34.4146 54.6037 34.5423 54.5043 34.4286Z" fill="white"/>
<path d="M55.739 34.0736C55.6113 33.8748 56.0655 33.5343 56.4346 33.5343C56.6048 33.5343 56.6758 33.6194 56.6474 33.7755C56.5907 34.0593 55.8668 34.2864 55.739 34.0736Z" fill="white"/>
<path d="M51.8505 33.9744C51.8505 33.9034 51.8081 33.7473 51.7655 33.6195C51.7228 33.4918 51.7371 33.3925 51.8222 33.3925C52.0066 33.3925 52.1486 33.9317 51.9783 34.0454C51.9075 34.088 51.8505 34.0594 51.8505 33.9744Z" fill="white"/>
<path d="M52.2336 33.6484C52.1486 33.3362 52.3189 33.1091 52.6454 33.1091C52.8298 33.1091 53.0143 33.6627 52.9008 33.8471C52.7445 34.0885 52.3047 33.9465 52.2336 33.6484Z" fill="white"/>
<path d="M53.2273 33.7188C53.0145 33.506 53.1422 32.9951 53.4261 32.9241C53.6389 32.8674 53.7525 32.9382 53.8659 33.1936C53.951 33.3783 53.9937 33.5627 53.9653 33.5911C53.8233 33.7188 53.3124 33.8182 53.2273 33.7188Z" fill="white"/>
<path d="M57.059 33.7193C56.8746 33.5348 56.9597 33.4212 57.3855 33.2651C57.7403 33.1517 57.8397 33.1657 57.9107 33.3361C58.0384 33.6766 57.3288 34.0031 57.059 33.7193Z" fill="white"/>
<path d="M58.308 33.3923C58.166 33.1654 58.3648 32.9667 58.7336 32.9667C59.1737 32.9667 59.3015 33.3356 58.904 33.4492C58.4782 33.5626 58.4074 33.5486 58.308 33.3923Z" fill="white"/>
<path d="M59.5139 33.052C59.5139 32.8392 59.7694 32.6121 59.883 32.7256C59.9824 32.8249 59.7837 33.2507 59.6416 33.2507C59.5706 33.2507 59.5139 33.1654 59.5139 33.052Z" fill="white"/>
<path d="M51.6662 32.8677C51.6095 32.825 51.5669 32.6406 51.5812 32.4845C51.5812 32.2148 51.5952 32.2148 51.7229 32.5271C51.865 32.8677 51.8366 33.038 51.6662 32.8677Z" fill="white"/>
<path d="M51.9359 32.6549C51.8082 32.158 51.8223 32.1156 52.1914 32.1156C52.6029 32.1156 52.8583 32.6406 52.5462 32.8393C52.2197 33.038 52.0353 32.9813 51.9359 32.6549Z" fill="white"/>
<path d="M56.8176 32.9385C56.8176 32.8961 56.8884 32.669 56.9737 32.4136C57.1722 31.8457 57.6123 31.8174 57.7117 32.3709C57.7541 32.5837 57.7684 32.7684 57.7541 32.7825C57.6831 32.8675 56.8176 32.9953 56.8176 32.9385Z" fill="white"/>
<path d="M52.9434 32.5841C52.8866 32.5414 52.844 32.3711 52.844 32.215C52.844 31.9879 52.8866 31.9738 53.057 32.1156C53.1704 32.215 53.2698 32.3854 53.2698 32.4847C53.2698 32.6975 53.0994 32.7542 52.9434 32.5841Z" fill="white"/>
<path d="M58.0524 32.2999C57.9673 31.86 58.1518 31.6612 58.5917 31.718C58.8045 31.7463 58.8755 31.874 58.8755 32.1864C58.8755 32.5412 58.8188 32.6263 58.5066 32.6547C58.1944 32.6973 58.1234 32.6263 58.0524 32.2999Z" fill="white"/>
<path d="M59.443 32.3567C59.2586 31.7889 59.3153 31.6187 59.6985 31.5761C60.039 31.5334 60.0816 31.5761 60.0816 31.9452C60.0816 32.2573 59.9966 32.385 59.7835 32.4418C59.6274 32.4844 59.4714 32.4418 59.443 32.3567Z" fill="white"/>
<path d="M51.4534 31.5476C51.4534 31.2779 51.4817 31.1645 51.5244 31.3063C51.5527 31.434 51.5527 31.6611 51.5244 31.8031C51.4817 31.9308 51.4534 31.8172 51.4534 31.5476Z" fill="white"/>
<path d="M51.808 31.7325C51.6236 31.5622 51.7087 31.0088 51.9358 30.9235C52.2622 30.7958 52.4183 30.9519 52.4183 31.4204C52.4183 31.7182 52.3473 31.8319 52.1629 31.8319C52.0208 31.8319 51.8505 31.7892 51.808 31.7325Z" fill="white"/>
<path d="M52.6596 31.3489C52.6029 31.1361 52.5745 30.909 52.6313 30.8664C52.7731 30.7246 52.8583 30.9517 52.8157 31.3632L52.773 31.7605L52.6596 31.3489Z" fill="white"/>
<path d="M57.2434 31.2502C57.2434 31.0939 57.3144 31.0088 57.3854 31.0515C57.4705 31.0939 57.5272 31.2359 57.5272 31.3494C57.5272 31.463 57.4705 31.5481 57.3854 31.5481C57.3144 31.5481 57.2434 31.4204 57.2434 31.2502Z" fill="white"/>
<path d="M57.8821 31.4347C57.6836 31.2217 57.8397 30.8385 58.1659 30.7534C58.5777 30.6541 58.5917 30.6541 58.7195 31.0656C58.8045 31.321 58.7478 31.378 58.3789 31.4347C58.1518 31.4771 57.9248 31.463 57.8821 31.4347Z" fill="white"/>
<path d="M59.1875 31.1647C59.0314 31.0227 59.074 30.5544 59.2301 30.5544C59.3152 30.5544 59.3719 30.4977 59.3719 30.4124C59.3719 30.3416 59.2868 30.2706 59.1734 30.2706C58.932 30.2706 58.7335 29.5753 58.932 29.3766C59.1875 29.1211 59.4713 29.3906 59.6416 30.0862C59.741 30.4551 59.8404 30.8809 59.8828 31.0227C59.9397 31.2071 59.8828 31.2641 59.6133 31.2641C59.4288 31.2641 59.2301 31.2214 59.1875 31.1647Z" fill="white"/>
<path d="M59.9539 30.4128C59.8547 29.987 59.5993 29.1355 59.4146 28.511C59.1308 27.6029 59.1025 27.3758 59.2586 27.2764C59.3579 27.2054 59.4856 27.1487 59.5283 27.1487C59.6844 27.1487 60.252 30.058 60.1953 30.6256L60.1526 31.1932L59.9539 30.4128Z" fill="white"/>
<path d="M51.3113 30.3417C51.3113 30.1146 51.3396 30.0296 51.3823 30.1714C51.4106 30.2991 51.4106 30.4978 51.3823 30.5972C51.3396 30.6823 51.3113 30.5829 51.3113 30.3417Z" fill="white"/>
<path d="M51.5952 30.3127C51.6522 29.8161 52.0637 29.7024 52.1771 30.1566C52.2765 30.5255 52.3048 30.483 51.879 30.6248C51.5811 30.7101 51.5528 30.6818 51.5952 30.3127Z" fill="white"/>
<path d="M57.5843 30.1849C57.4706 29.7733 57.712 29.5322 58.166 29.5889C58.5067 29.6315 58.6344 30.2416 58.3506 30.4262C57.9958 30.6533 57.6694 30.554 57.5843 30.1849Z" fill="white"/>
<path d="M52.4185 30.0716C52.4185 29.8302 52.4895 29.7025 52.6455 29.7025C52.7876 29.7025 52.8443 29.8019 52.8159 30.0147C52.7449 30.4689 52.4185 30.5115 52.4185 30.0716Z" fill="white"/>
<path d="M51.1553 29.4757C51.1553 29.3196 51.198 29.2772 51.2406 29.3907C51.2831 29.49 51.269 29.6177 51.2263 29.6604C51.1837 29.7171 51.1413 29.6318 51.1553 29.4757Z" fill="white"/>
<path d="M51.425 29.4331C51.425 29.2201 51.5101 29.135 51.7231 29.135C51.9217 29.135 51.9927 29.206 51.9643 29.3764C51.8933 29.7453 51.425 29.7879 51.425 29.4331Z" fill="white"/>
<path d="M52.2054 29.3055C52.1063 29.0501 52.1063 29.0501 52.5319 28.9364C52.7873 28.8514 52.844 28.894 52.844 29.1068C52.844 29.4473 52.3331 29.6177 52.2054 29.3055Z" fill="white"/>
<path d="M57.3428 29.1066C57.2435 28.7518 57.4279 28.5674 57.9247 28.5674C58.1659 28.5674 58.2369 28.6525 58.2369 28.9222C58.2369 29.135 58.1518 29.277 58.0382 29.277C57.9247 29.277 57.7403 29.3197 57.6266 29.3621C57.4989 29.4047 57.3996 29.3197 57.3428 29.1066Z" fill="white"/>
<path d="M58.5774 28.7805C58.4638 28.4967 58.6342 28.2839 58.9606 28.2839C59.1593 28.2839 59.2301 28.3833 59.2301 28.6388C59.2301 28.8942 59.1593 28.9936 58.9463 28.9936C58.7902 28.9936 58.6199 28.8942 58.5774 28.7805Z" fill="white"/>
<path d="M51.283 28.5816C51.283 28.2835 51.6094 27.9429 51.7514 28.099C51.8081 28.1417 51.8508 28.3402 51.8508 28.5248C51.8508 28.7517 51.7655 28.8511 51.5668 28.8511C51.3823 28.8511 51.283 28.7517 51.283 28.5816Z" fill="white"/>
<path d="M52.0639 28.4111C51.9503 28.0565 52.078 27.9002 52.5605 27.8295C53.0006 27.7725 53.1424 28.241 52.7592 28.5248C52.3904 28.7943 52.1633 28.7519 52.0639 28.4111Z" fill="white"/>
<path d="M57.2008 28.3264C57.1015 28.2413 57.0588 27.7162 57.1441 27.7162C57.1582 27.7162 57.3712 27.6594 57.6267 27.5884C58.0523 27.4607 58.0806 27.475 58.0666 27.8582C58.0523 28.142 57.9672 28.284 57.7544 28.3407C57.3712 28.4401 57.3143 28.4401 57.2008 28.3264Z" fill="white"/>
<path d="M56.6755 27.9994C56.6755 27.9003 56.7182 27.8576 56.7749 27.9003C56.8175 27.957 56.8175 28.0421 56.7749 28.0988C56.7182 28.1414 56.6755 28.0988 56.6755 27.9994Z" fill="white"/>
<path d="M58.2653 27.7724C58.308 27.5312 58.7479 27.1764 58.8472 27.2898C58.8899 27.3325 58.9607 27.5029 59.0033 27.6873C59.1027 27.9711 59.06 27.9995 58.6628 27.9995C58.322 27.9995 58.2229 27.9428 58.2653 27.7724Z" fill="white"/>
<path d="M51.425 27.7585C51.425 27.6875 51.4961 27.5457 51.5668 27.4321C51.6805 27.2619 51.7089 27.276 51.7089 27.5457C51.7089 27.7161 51.6521 27.8579 51.5668 27.8579C51.4961 27.8579 51.425 27.8152 51.425 27.7585Z" fill="white"/>
<path d="M51.8506 27.4462C51.8506 27.0487 52.1487 26.921 52.3758 27.2191C52.5176 27.4319 52.5176 27.5029 52.3758 27.6023C52.0777 27.7867 51.8506 27.73 51.8506 27.4462Z" fill="white"/>
<path d="M56.1651 27.2622C55.9096 26.9784 55.9096 26.9643 56.151 27.0494C56.2928 27.1061 56.4772 27.1487 56.5482 27.1487C56.6192 27.1487 56.676 27.2481 56.676 27.3615C56.676 27.6596 56.4772 27.6313 56.1651 27.2622Z" fill="white"/>
<path d="M53.1139 27.2476C52.5036 26.7794 52.4186 25.7292 52.9862 25.7292C53.3693 25.7292 53.7242 26.3252 53.6672 26.8788C53.6248 27.3897 53.4544 27.5031 53.1139 27.2476Z" fill="white"/>
<path d="M57.0023 27.3328C57.059 27.2901 57.1443 27.2901 57.201 27.3328C57.2435 27.3895 57.201 27.4321 57.1017 27.4321C57.0023 27.4321 56.9597 27.3895 57.0023 27.3328Z" fill="white"/>
<path d="M59.1453 26.7792C59.188 26.6515 59.2304 26.5238 59.2304 26.4954C59.2304 26.4671 59.3014 26.4387 59.3724 26.4387C59.4575 26.4387 59.5142 26.5664 59.5142 26.7225C59.5142 26.8927 59.4149 27.0063 59.2871 27.0063C59.1311 27.0063 59.0886 26.9353 59.1453 26.7792Z" fill="white"/>
<path d="M51.7087 26.7366C51.7087 26.4103 52.0068 25.8711 52.177 25.8711C52.4751 25.8711 52.2623 26.7792 51.9499 26.8359C51.8222 26.8643 51.7087 26.8219 51.7087 26.7366Z" fill="white"/>
<path d="M54.9019 26.5804L54.4761 26.481L54.8592 26.3817C55.2567 26.2682 55.5405 26.3533 55.5405 26.5947C55.5405 26.7365 55.5262 26.7365 54.9019 26.5804Z" fill="white"/>
<path d="M54.405 25.8992C54.405 25.3173 54.7315 25.2322 55.0296 25.7431C55.2283 26.0836 55.2424 26.1546 55.0579 26.1546C54.9445 26.1546 54.7598 26.1973 54.6321 26.2397C54.462 26.3107 54.405 26.2256 54.405 25.8992Z" fill="white"/>
<path d="M56.8746 26.098C56.236 25.8142 55.8245 25.0622 55.8245 24.1681C55.8245 23.5295 55.8812 23.3734 56.2644 23.0186C56.5057 22.7915 56.7469 22.6071 56.8179 22.6071C57.1301 22.6071 58.2796 23.6999 58.6627 24.3809L59.1026 25.1615L58.6344 25.6581C58.0951 26.2258 57.4992 26.3821 56.8746 26.098Z" fill="white"/>
<path d="M53.9085 25.7295C53.8658 25.6585 53.8942 25.5875 53.9652 25.5875C54.0503 25.5875 54.1213 25.6585 54.1213 25.7295C54.1213 25.8146 54.0929 25.8716 54.0646 25.8716C54.0219 25.8716 53.9511 25.8146 53.9085 25.7295Z" fill="white"/>
<path d="M52.0492 25.5021C52.0919 25.3744 52.1343 25.2467 52.1343 25.2183C52.1343 25.19 52.262 25.1616 52.4181 25.1616C52.7729 25.1616 52.7872 25.3887 52.4324 25.5874C52.0492 25.786 51.9498 25.7719 52.0492 25.5021Z" fill="white"/>
<path d="M53.1704 25.3319C52.8439 25.2894 52.7445 25.105 52.9576 24.9773C53.0143 24.9346 53.2697 24.8636 53.5252 24.8069C53.9083 24.7218 53.9791 24.7502 53.9791 24.9913C53.9791 25.2894 53.6813 25.4172 53.1704 25.3319Z" fill="white"/>
<path d="M54.2634 24.8495C54.2634 24.6793 54.2777 24.58 54.3061 24.6083C54.3201 24.6367 54.4338 24.7785 54.5332 24.9205C54.7033 25.1192 54.6892 25.1616 54.4905 25.1616C54.3485 25.1616 54.2634 25.0482 54.2634 24.8495Z" fill="white"/>
<path d="M52.2764 24.7502C52.2764 24.6651 52.3474 24.5657 52.4182 24.5231C52.5035 24.4807 52.5602 24.5374 52.5602 24.6508C52.5602 24.7785 52.5035 24.8779 52.4182 24.8779C52.3474 24.8779 52.2764 24.8212 52.2764 24.7502Z" fill="white"/>
<path d="M52.8016 24.5367C52.688 24.2529 53.6955 23.9408 53.8659 24.2103C53.9936 24.4374 53.8659 24.5367 53.3266 24.6504C53.0002 24.7212 52.8584 24.6928 52.8016 24.5367Z" fill="white"/>
<path d="M54.1356 24.0829C54.1356 23.9268 54.1783 23.8842 54.2207 23.9978C54.2634 24.0972 54.2491 24.2249 54.2066 24.2673C54.164 24.3243 54.1213 24.239 54.1356 24.0829Z" fill="white"/>
<path d="M52.9293 23.8561C53.0995 23.5437 53.5963 23.0328 53.7241 23.0328C53.8658 23.0328 53.8801 23.6998 53.7381 23.7851C53.6671 23.8135 53.4402 23.8845 53.2272 23.9412C52.9151 24.0122 52.8441 23.9979 52.9293 23.8561Z" fill="white"/>
<path d="M54.0647 23.5294C53.9086 23.1038 53.9796 22.9191 54.3201 22.8624C54.6749 22.7914 54.6749 22.7914 54.4478 23.2315C54.164 23.7991 54.1781 23.7991 54.0647 23.5294Z" fill="white"/>
<path d="M53.9792 22.6783C53.9792 22.6497 54.2633 22.4512 54.6179 22.2525C55.0437 21.9971 55.3418 21.912 55.5546 21.9687C55.81 22.0538 55.739 22.1105 55.1147 22.4086C54.4194 22.7207 53.9792 22.8344 53.9792 22.6783Z" fill="white"/>
<path d="M61.8556 10.1047C61.4724 9.55113 60.6634 8.65707 60.0815 8.11781C59.4998 7.57856 59.1167 7.13867 59.2301 7.13867C59.5423 7.13867 61.9266 7.79136 62.5226 8.04681C63.0192 8.25961 63.0335 8.28819 62.9057 8.72808C62.8347 8.98352 62.778 9.62214 62.778 10.1471C62.778 10.6864 62.7354 11.1122 62.6786 11.1122C62.6076 11.1122 62.2528 10.658 61.8556 10.1047Z" fill="white"/>
<path d="M32.9761 53.0901C32.3942 52.7922 32.2665 52.6219 31.5285 51.1602C30.4643 49.0882 30.4359 48.6057 31.4434 49.7836C31.8407 50.2518 32.7633 51.2169 33.487 51.9265C34.7216 53.1185 34.7783 53.2038 34.3668 53.147C34.0689 53.1044 33.9553 53.1327 34.0263 53.2462C34.1966 53.5016 33.6574 53.4308 32.9761 53.0901Z" fill="white"/>
<path fill-rule="evenodd" clip-rule="evenodd" d="M56.7593 78.9462C56.6415 78.6663 56.7727 78.3443 57.0526 78.2264L57.3584 78.0967C60.331 76.8248 62.0373 76.0606 63.1967 74.8474C64.3559 73.6341 64.4946 71.8521 64.7125 70.7677C64.7723 70.4702 65.4461 70.9928 65.7437 71.0526C66.0414 71.1124 66.2342 71.4021 66.1744 71.6998C65.9123 73.0034 65.2071 74.2463 64.0719 75.4262C62.9404 76.6021 60.7495 77.8626 57.479 79.2394C57.1992 79.3573 56.8771 79.2258 56.7593 78.9462Z" fill="#00160A"/>
<path fill-rule="evenodd" clip-rule="evenodd" d="M70.2023 22.322C70.4633 22.1666 70.8005 22.2523 70.9557 22.513C72.5104 25.1245 73.3431 28.1098 73.3431 31.2156C73.3431 40.625 65.7153 48.2528 56.3059 48.2528C53.8055 48.2528 51.3805 47.7136 49.16 46.6861C48.8845 46.5585 47.8438 45.5438 48.8918 45.9564C49.9399 46.3693 53.995 47.2957 56.3351 47.2957C65.1373 47.2957 71.3646 40.0178 71.3646 31.2156C71.3646 28.309 70.2023 25.7292 70.0113 23.0754C69.9891 22.7676 69.9416 22.4772 70.2023 22.322Z" fill="#00160A"/>
<path fill-rule="evenodd" clip-rule="evenodd" d="M15.7724 63.9174C15.9665 63.6841 16.3132 63.213 16.5464 63.4071C17.5031 64.204 18.524 65.1273 19.6162 65.3056C20.7527 65.4912 22.101 65.4912 23.6591 65.3023C23.9605 65.2661 24.2342 65.4806 24.2707 65.782C24.3072 66.0834 24.0924 66.3571 23.7913 66.3936C22.1364 66.5939 20.6863 66.5939 19.4392 66.3905C18.1477 66.1797 16.9465 65.6108 15.8429 64.6914C15.6097 64.4971 15.578 64.1506 15.7724 63.9174Z" fill="#00160A"/>
<path d="M27.4415 44.6891C26.7319 44.1215 25.2132 42.4468 24.0637 40.9708C23.4678 40.1904 22.8008 38.601 22.4033 36.9973C22.2189 36.2736 22.0344 35.6207 21.9918 35.5357C21.9351 35.4646 21.708 34.4571 21.4809 33.2933C21.1404 31.6472 21.2125 31.1168 20.9133 29.1477C20.7867 28.3139 20.6721 27.6506 20.6721 27.6506L21.041 27.1769C21.2538 26.8931 21.5231 26.4233 21.6229 26.1551C22.0771 24.933 25.412 21.1029 25.5113 21.2022C25.5397 21.2306 25.4263 21.8976 25.2275 22.6782C25.0431 23.4586 24.816 24.6365 24.7166 25.3035C24.5746 26.4105 24.5179 26.5383 24.078 26.9071C23.5245 27.3756 22.4743 28.8797 22.4743 29.1921C22.4743 29.6177 23.1129 29.3339 23.7799 28.6386L24.4612 27.9289V28.7096C24.4612 29.2205 24.3618 29.6887 24.1774 30.0576C23.8226 30.7531 23.8226 31.4911 24.1631 32.0587C24.3335 32.3426 24.4895 33.0236 24.5889 33.8326C25.0288 37.4939 25.9655 40.673 27.5692 43.8661C27.9665 44.6608 28.2786 45.3135 28.2645 45.3135C28.2362 45.3135 27.8671 45.0296 27.4415 44.6891Z" fill="white"/>
<path fill-rule="evenodd" clip-rule="evenodd" d="M86.4919 53.4454L87.5137 53.8996C87.7257 53.9972 90.0632 55.1203 92.8707 56.4694C97.3973 58.6445 103.146 61.4067 103.181 61.4067C103.238 61.4067 103.504 60.7909 103.564 60.0727C103.706 58.526 104.231 56.4255 104.842 54.9638C105.125 54.3111 105.352 53.4951 105.352 53.4243C105.352 53.3917 105.122 53.2988 104.744 53.1464C104.294 52.9651 103.637 52.6997 102.912 52.3526C99.3353 50.6355 92.3389 47.1302 91.4732 46.605C90.6218 46.1084 90.4514 46.0658 90.4514 46.3922C90.4514 46.818 89.5857 48.7906 88.9187 49.8548C88.5641 50.4367 87.8686 51.4869 87.3719 52.1822L86.4919 53.4454ZM102.94 58.8522C103.347 59.0881 102.642 59.4341 102.472 59.4908C101.469 59.5761 100.288 59.3875 99.3211 58.8239C98.8154 58.4653 94.8331 56.2529 92.1916 54.7853C90.984 54.1146 90.0566 53.5993 89.8697 53.4878C89.2735 53.1332 88.7059 52.7501 88.6065 52.6364C88.3087 52.2532 88.5925 52.0831 89.4296 52.1539C89.933 52.1965 102.061 58.3429 102.94 58.8522Z" fill="white"/>
<path d="M76.3026 54.7227C75.9337 54.5949 75.5363 54.3109 75.2808 53.9847L74.855 53.4595L76.3593 51.9695C78.6726 49.6988 80.3755 47.2173 81.9082 44.45C82.4191 43.5276 83.9377 39.8073 84.1221 39.3958C84.4059 38.7998 84.6187 38.5727 85.229 38.232C85.9529 37.8064 86.776 37.6644 87.1308 37.9058C87.8118 38.3597 87.8118 39.7933 87.1308 42.2624C86.3785 44.973 85.371 46.9172 83.2848 49.7131C82.9583 50.1387 82.3483 50.976 81.9082 51.5579C80.7303 53.119 79.9639 53.871 78.9281 54.4529C77.9063 55.0205 77.3101 55.0915 76.3026 54.7227Z" fill="white"/>
<path d="M81.6526 54.3955L81.3545 54.0976C81.3545 54.0976 86.301 47.8132 87.1871 45.4975C87.8636 43.7305 88.2617 43.2292 88.7988 43.2292C89.099 43.2292 89.3444 43.2978 89.4578 43.4682C89.6565 43.7663 89.848 44.1352 89.5926 45.3981C89.1668 47.4417 88.5141 48.79 86.5556 51.6993C86.1014 52.3662 85.5197 53.1042 85.2643 53.3597C84.6681 53.9132 83.3271 54.4808 82.5467 54.6085C82.05 54.6796 81.908 54.651 81.6526 54.3955Z" fill="white"/>
<path fill-rule="evenodd" clip-rule="evenodd" d="M89.9611 47.8247C90.2474 47.17 90.4514 46.5989 90.4514 46.3922C90.4514 46.0658 90.6217 46.1084 91.4731 46.605C92.3389 47.1302 99.3353 50.6355 102.912 52.3526C104.246 52.9912 105.352 53.3533 105.352 53.4243C105.352 53.4951 89.6578 48.5189 89.9611 47.8247Z" fill="#E7EAEE"/>
<path fill-rule="evenodd" clip-rule="evenodd" d="M41.4057 48.6338C39.6033 47.4559 36.8784 44.6887 35.5588 42.7159C33.6713 39.8776 32.4224 36.8408 31.8121 33.5767C31.3722 31.2066 31.3865 27.5596 31.8264 25.445C32.2806 23.2878 32.8623 21.6416 33.8983 19.5554C35.1046 17.1429 36.3818 15.3691 38.2977 13.4532C40.1764 11.5745 31.8264 19.3439 33.8983 33.2449C35.5588 44.894 42.6946 49.483 41.4057 48.6338Z" fill="#E7EAEE"/>
</svg>
