<svg width="22" height="22" viewBox="0 0 22 22" fill="none" xmlns="http://www.w3.org/2000/svg">
<path d="M8.35137 7.74183L5.69793 15.072C5.41433 15.8554 6.15702 16.6217 6.94896 16.3628L13.6872 14.16C13.9942 14.0596 14.2339 13.817 14.3306 13.5088L16.4567 6.73178C16.6925 5.9802 16.0071 5.26373 15.2458 5.46595L9.03494 7.11572C8.71827 7.19983 8.4629 7.43374 8.35137 7.74183Z" stroke="white"/>
<circle cx="11" cy="11" r="10" stroke="white" stroke-width="2"/>
<rect x="10" y="10" width="2" height="2" rx="0.7" fill="white"/>
<path d="M6 19H6.71948C13.3177 19 19.0377 14.4341 20.5 8V8" stroke="white" stroke-width="0.6"/>
<path d="M16.3251 2.77683L15.606 2.79924C9.01097 3.00484 3.43599 7.74675 2.17489 14.2233V14.2233" stroke="white" stroke-width="0.6"/>
</svg>
