<svg width="13" height="12" viewBox="0 0 13 12" fill="none" xmlns="http://www.w3.org/2000/svg">
<path d="M2.50006 10.5L3.50006 11.5L6.50006 9.99998L10.0001 11.5L10.5001 9.49998L10.0001 7.49998L12.0001 5.49998V4.49998L8.50006 3.99998L7.00006 0.999977L6.50006 0.499977L6.00006 0.999977L4.50006 3.99998L0.500061 4.49998L1.00006 4.99998L3.00006 7.49998L2.50006 10.5Z" fill="url(#paint0_radial_3_129)"/>
<path fill-rule="evenodd" clip-rule="evenodd" d="M6.50006 0.972949C6.43939 0.972949 6.29006 0.989165 6.21072 1.14354L4.99337 3.5117C4.8007 3.88596 4.42936 4.14606 4.00002 4.20574L1.27463 4.58778C1.09463 4.61308 1.0333 4.7428 1.01463 4.79729C0.997962 4.84983 0.971295 4.98345 1.0953 5.0989L3.066 6.94102C3.38001 7.23485 3.52267 7.65841 3.44801 8.07288L2.984 10.6739C2.95533 10.8367 3.06 10.9314 3.10667 10.9638C3.156 11.0002 3.288 11.0722 3.45134 10.9891L5.88805 9.75998C6.27206 9.56734 6.7294 9.56734 7.11207 9.75998L9.54812 10.9885C9.71212 11.0709 9.84412 10.9989 9.89412 10.9638C9.94079 10.9314 10.0455 10.8367 10.0168 10.6739L9.55145 8.07288C9.47678 7.65841 9.61945 7.23485 9.93346 6.94102L11.9042 5.0989C12.0288 4.98345 12.0022 4.84918 11.9848 4.79729C11.9668 4.7428 11.9055 4.61308 11.7255 4.58778L9.00011 4.20574C8.57143 4.14606 8.20009 3.88596 8.00742 3.51105L6.78873 1.14354C6.71007 0.989165 6.56073 0.972949 6.50006 0.972949ZM3.298 11.9997C3.02267 11.9997 2.74933 11.9154 2.51532 11.7493C2.11132 11.4613 1.91331 10.9859 1.99931 10.5072L2.46332 7.90619C2.48066 7.80954 2.44666 7.7116 2.37332 7.64284L0.402618 5.80072C0.0399448 5.46279 -0.0900576 4.96334 0.0632785 4.49957C0.217948 4.0306 0.627289 3.69526 1.13196 3.62521L3.85735 3.24316C3.96268 3.22889 4.05335 3.16598 4.09869 3.07647L5.31671 0.707658C5.54138 0.271129 5.99472 0 6.50006 0C7.0054 0 7.45875 0.271129 7.68342 0.707658L8.90211 3.07582C8.94811 3.16598 9.03811 3.22889 9.14278 3.24316L11.8682 3.62521C12.3728 3.69526 12.7822 4.0306 12.9368 4.49957C13.0902 4.96334 12.9595 5.46279 12.5968 5.80072L10.6261 7.64284C10.5528 7.7116 10.5195 7.80954 10.5368 7.90554L11.0015 10.5072C11.0868 10.9865 10.8888 11.462 10.4841 11.7493C10.0741 12.0419 9.54012 12.0814 9.08744 11.8518L6.65206 10.624C6.55673 10.576 6.44273 10.576 6.34739 10.624L3.91202 11.8525C3.71734 11.9511 3.50734 11.9997 3.298 11.9997Z" fill="white"/>
<defs>
<radialGradient id="paint0_radial_3_129" cx="0" cy="0" r="1" gradientUnits="userSpaceOnUse" gradientTransform="translate(3.50006 1.49998) rotate(61.1892) scale(11.4127 11.9315)">
<stop offset="0.280612" stop-color="#FFC700"/>
<stop offset="0.568145" stop-color="#BB29FF"/>
<stop offset="0.726432" stop-color="#1673FF"/>
<stop offset="0.933906" stop-color="#0029FF"/>
</radialGradient>
</defs>
</svg>
