<svg width="18" height="14" viewBox="0 0 18 14" fill="none" xmlns="http://www.w3.org/2000/svg">
<path d="M10.5457 12.3753V11.1114C10.5457 10.441 10.2775 9.79801 9.80015 9.32395C9.40377 8.93032 8.89013 8.67992 8.34076 8.60628C8.11615 8.57617 7.88961 8.55219 7.6716 8.49033V8.49033C6.43027 8.13813 5.11544 8.13813 3.87411 8.49033V8.49033C3.6561 8.55219 3.42956 8.57617 3.20495 8.60628C2.65559 8.67992 2.14195 8.93032 1.74557 9.32395C1.26819 9.79801 1 10.441 1 11.1114V12.3753" stroke="white" stroke-width="1.6" stroke-linecap="round" stroke-linejoin="round"/>
<path d="M5.77239 6.05569C7.17825 6.05569 8.31792 4.92394 8.31792 3.52785C8.31792 2.13176 7.17825 1 5.77239 1C4.36654 1 3.22687 2.13176 3.22687 3.52785C3.22687 4.92394 4.36654 6.05569 5.77239 6.05569Z" stroke="white" stroke-width="1.6" stroke-linecap="round" stroke-linejoin="round"/>
<path d="M15 3V7" stroke="#0029FF" stroke-width="1.3" stroke-linecap="round" stroke-linejoin="round"/>
<path d="M17 5H13" stroke="#0029FF" stroke-width="1.3" stroke-linecap="round" stroke-linejoin="round"/>
</svg>
