<svg width="25" height="24" viewBox="0 0 25 24" fill="none" xmlns="http://www.w3.org/2000/svg">
<g clip-path="url(#clip0_1_517)">
<path d="M24.2662 9.64963H23.2996V9.59983H12.4998V14.3998H19.2815C18.2921 17.1939 15.6335 19.1997 12.4998 19.1997C8.52366 19.1997 5.29992 15.9759 5.29992 11.9998C5.29992 8.02366 8.52366 4.79992 12.4998 4.79992C14.3352 4.79992 16.0049 5.4923 17.2763 6.62329L20.6705 3.22914C18.5273 1.23178 15.6605 0 12.4998 0C5.87291 0 0.5 5.37291 0.5 11.9998C0.5 18.6267 5.87291 23.9996 12.4998 23.9996C19.1267 23.9996 24.4996 18.6267 24.4996 11.9998C24.4996 11.1952 24.4168 10.4098 24.2662 9.64963Z" fill="#FFC107"/>
<path d="M1.88278 6.41449L5.82531 9.30584C6.8921 6.66468 9.47565 4.79992 12.499 4.79992C14.3344 4.79992 16.0041 5.4923 17.2755 6.62328L20.6697 3.22914C18.5265 1.23178 15.6597 0 12.499 0C7.88988 0 3.89275 2.60215 1.88278 6.41449Z" fill="#FF3D00"/>
<path d="M12.5 24C15.5995 24 18.4159 22.8138 20.5452 20.8849L16.8313 17.7421C15.5861 18.6891 14.0644 19.2013 12.5 19.2001C9.37884 19.2001 6.72868 17.2099 5.7303 14.4326L1.81717 17.4475C3.80313 21.3336 7.83627 24 12.5 24Z" fill="#4CAF50"/>
<path d="M24.2662 9.64963H23.2996V9.59983H12.4998V14.3998H19.2815C18.8082 15.7296 17.9557 16.8916 16.8293 17.7423L16.8311 17.7411L20.545 20.8838C20.2823 21.1226 24.4996 17.9997 24.4996 11.9998C24.4996 11.1952 24.4168 10.4098 24.2662 9.64963Z" fill="#1976D2"/>
</g>
<defs>
<clipPath id="clip0_1_517">
<rect x="0.5" width="24" height="24" rx="12" fill="white"/>
</clipPath>
</defs>
</svg>
