<svg width="27" height="27" viewBox="0 0 27 27" fill="none" xmlns="http://www.w3.org/2000/svg">
<circle cx="9.84623" cy="9.30771" r="1.15385" fill="white"/>
<circle cx="12.9229" cy="9.30771" r="1.15385" fill="white"/>
<circle cx="16" cy="9.30771" r="1.15385" fill="white"/>
<g filter="url(#filter0_d_264_901)">
<path fill-rule="evenodd" clip-rule="evenodd" d="M20.2809 9.14043C20.2809 5.19688 17.084 2 13.1404 2C9.19688 2 6 5.19688 6 9.14043C6 13.084 9.19688 16.2809 13.1404 16.2809C13.9285 16.2809 14.9861 16.0177 16.3134 15.4913C16.5542 15.3958 16.8224 15.3915 17.0637 15.4856L19.1197 16.2876L19.1919 16.3111C19.5062 16.3935 19.8394 16.2289 19.9604 15.9188C20.0088 15.7948 20.0178 15.6589 19.9864 15.5295L19.3763 13.0203C19.3321 12.8385 19.3472 12.6474 19.4193 12.4748C19.9937 11.0757 20.2809 9.96423 20.2809 9.14043ZM18.4143 12.3524C18.3309 12.55 18.3132 12.7692 18.3639 12.9777L18.8023 14.7809C18.8405 14.9381 18.686 15.0733 18.5353 15.0145L17.0501 14.4351C16.8095 14.3413 16.542 14.3441 16.3036 14.443L16.0695 14.5401C14.7922 15.0555 13.8055 15.3072 13.1404 15.3072C9.73465 15.3072 6.97371 12.5462 6.97371 9.14041C6.97371 5.73462 9.73465 2.97368 13.1404 2.97368C16.5462 2.97368 19.3072 5.73462 19.3072 9.14041C19.3072 9.81909 19.0456 10.8251 18.5096 12.1267L18.4143 12.3524Z" fill="white"/>
</g>
<defs>
<filter id="filter0_d_264_901" x="0" y="0" width="26.2808" height="26.3322" filterUnits="userSpaceOnUse" color-interpolation-filters="sRGB">
<feFlood flood-opacity="0" result="BackgroundImageFix"/>
<feColorMatrix in="SourceAlpha" type="matrix" values="0 0 0 0 0 0 0 0 0 0 0 0 0 0 0 0 0 0 127 0" result="hardAlpha"/>
<feOffset dy="4"/>
<feGaussianBlur stdDeviation="3"/>
<feComposite in2="hardAlpha" operator="out"/>
<feColorMatrix type="matrix" values="0 0 0 0 1 0 0 0 0 1 0 0 0 0 1 0 0 0 0.25 0"/>
<feBlend mode="normal" in2="BackgroundImageFix" result="effect1_dropShadow_264_901"/>
<feBlend mode="normal" in="SourceGraphic" in2="effect1_dropShadow_264_901" result="shape"/>
</filter>
</defs>
</svg>
