<svg width="26" height="26" viewBox="0 0 26 26" fill="none" xmlns="http://www.w3.org/2000/svg">
<path d="M2 19H23.5" stroke="white"/>
<path fill-rule="evenodd" clip-rule="evenodd" d="M7.23965 1.89351C8.51793 0.677896 10.2145 0 11.9785 0H13.1176C14.8816 0 16.5782 0.677896 17.8564 1.89351L22.9583 6.74529C24.3233 8.04341 25.0961 9.84467 25.0961 11.7284V18.2195C25.0961 22.0173 22.0173 25.0961 18.2195 25.0961H6.87661C3.07876 25.0961 0 22.0173 0 18.2195V11.7284C0 9.84467 0.772751 8.04341 2.13778 6.74529L7.23965 1.89351ZM11.9785 2.41036C10.8328 2.41036 9.73091 2.85064 8.90069 3.64017L3.79882 8.49195C2.91225 9.33506 2.41036 10.5049 2.41036 11.7284V18.2195C2.41036 20.6861 4.40997 22.6857 6.87661 22.6857H18.2195C20.6861 22.6857 22.6857 20.6861 22.6857 18.2195V11.7284C22.6857 10.5049 22.1838 9.33506 21.2973 8.49195L16.1954 3.64017C15.3652 2.85064 14.2633 2.41036 13.1176 2.41036H11.9785Z" fill="white"/>
</svg>
