<svg width="26" height="26" viewBox="0 0 26 26" fill="none" xmlns="http://www.w3.org/2000/svg">
<path fill-rule="evenodd" clip-rule="evenodd" d="M18.5809 0C22.9792 0 25.9353 3.08079 25.9353 7.66494V18.2573C25.9353 22.8415 22.9792 25.9223 18.5809 25.9223H7.3414C2.94955 25.9223 0 22.8415 0 18.2573V7.66494C0 3.08079 2.94955 0 7.3414 0H18.5809ZM18.5809 1.94904H7.3414C4.06571 1.94904 1.94904 4.19304 1.94904 7.66494V18.2573C1.94904 21.7305 4.06571 23.9732 7.3414 23.9732H18.5809C21.8644 23.9732 23.9862 21.7305 23.9862 18.2573V7.66494C23.9862 4.19304 21.8644 1.94904 18.5809 1.94904ZM19.4112 13.1228C19.4194 13.1295 19.4275 13.1361 19.4444 13.1519L19.4695 13.1759C19.4746 13.1808 19.4802 13.1863 19.4863 13.1923L19.5589 13.2643C19.7932 13.4989 20.4409 14.1604 22.3711 16.1425C22.7466 16.5271 22.7401 17.1443 22.3542 17.5198C21.9696 17.8979 21.3511 17.8862 20.9756 17.5016C20.9756 17.5016 18.3132 14.7691 18.1235 14.5846C17.9221 14.4195 17.5986 14.3234 17.2802 14.3546C16.9567 14.3871 16.6656 14.5417 16.459 14.7925C13.4393 18.4554 13.4029 18.4904 13.3536 18.5385C12.2387 19.6326 10.4391 19.6144 9.34372 18.4969C9.34372 18.4969 8.13531 17.2703 8.11452 17.2457C7.81437 16.9676 7.27903 16.9858 6.95809 17.3249L4.97006 19.4208C4.77776 19.6235 4.52048 19.7248 4.26321 19.7248C4.02153 19.7248 3.78115 19.6365 3.59274 19.4572C3.20163 19.0882 3.18604 18.4697 3.55636 18.0812L5.54178 15.9853C6.59297 14.8691 8.3666 14.8146 9.48795 15.867L10.7327 17.13C11.0797 17.4808 11.6436 17.4873 11.9918 17.1443C12.1231 16.9897 14.9531 13.5529 14.9531 13.5529C15.491 12.9006 16.2498 12.4978 17.0931 12.4146C17.9377 12.3406 18.7576 12.5861 19.4112 13.1228ZM8.52148 6.01462C10.3172 6.01592 11.7764 7.4764 11.7764 9.26822C11.7764 11.0626 10.3159 12.5231 8.52148 12.5231C6.72706 12.5231 5.26788 11.0626 5.26788 9.26822C5.26788 7.4738 6.72706 6.01462 8.52148 6.01462ZM8.52018 7.96366C7.80163 7.96366 7.21692 8.54838 7.21692 9.26822C7.21692 9.98807 7.80163 10.5741 8.52148 10.5741C9.24133 10.5741 9.82734 9.98807 9.82734 9.26822C9.82734 8.54968 9.24133 7.96496 8.52018 7.96366Z" fill="white"/>
</svg>
