<?xml version="1.0" encoding="UTF-8" standalone="no"?>
<!DOCTYPE svg PUBLIC "-//W3C//DTD SVG 1.1//EN" "http://www.w3.org/Graphics/SVG/1.1/DTD/svg11.dtd">
<svg width="100%" height="100%" viewBox="0 0 1239 1158" version="1.1" xmlns="http://www.w3.org/2000/svg" xmlns:xlink="http://www.w3.org/1999/xlink" xml:space="preserve" xmlns:serif="http://www.serif.com/" style="fill-rule:evenodd;clip-rule:evenodd;stroke-linejoin:round;stroke-miterlimit:2;">
    <g transform="matrix(1,0,0,1,-1545.69,-365.134)">
        <g>
            <g transform="matrix(0.999006,0.044587,-0.0428168,0.959342,434.174,-314.128)">
                <path d="M1778.83,1074.99C1860.03,849.082 2022.42,849.082 2103.62,923.033C2184.82,996.983 2184.82,1144.88 2103.62,1292.79C2046.78,1403.71 1900.63,1514.64 1778.83,1588.59C1657.04,1514.64 1510.88,1403.71 1454.05,1292.79C1372.85,1144.88 1372.85,996.983 1454.05,923.033C1535.24,849.082 1697.64,849.082 1778.83,1074.99Z" style="fill:rgb(235,235,235);fill-opacity:0;"/>
                <path d="M1778.83,967.002C1809.86,916.156 1845.91,882.106 1882.6,860.886C1973.73,808.182 2072.22,831.024 2133.79,887.106C2228,972.905 2237.7,1144.29 2143.74,1315.88C2083.39,1433.01 1930.52,1551.74 1801.92,1629.82L1778.83,1643.84L1755.75,1629.82C1627.14,1551.73 1474.27,1433 1413.94,1315.9C1319.96,1144.3 1329.67,972.907 1423.87,887.106C1485.45,831.024 1583.93,808.182 1675.07,860.886C1711.76,882.106 1747.8,916.156 1778.83,967.002ZM1778.83,1074.99C1697.64,849.082 1535.24,849.082 1454.05,923.033C1372.85,996.983 1372.85,1144.88 1454.05,1292.79C1510.88,1403.71 1657.04,1514.64 1778.83,1588.59C1900.63,1514.64 2046.78,1403.71 2103.62,1292.79C2184.82,1144.88 2184.82,996.983 2103.62,923.033C2022.42,849.082 1860.03,849.082 1778.83,1074.99Z" style="fill:white;"/>
            </g>
            <circle cx="2396.77" cy="657.678" r="15.176" style="fill:rgb(235,235,235);fill-opacity:0;"/>
            <path d="M2396.77,619.586C2417.79,619.586 2434.86,636.655 2434.86,657.678C2434.86,678.702 2417.79,695.771 2396.77,695.771C2375.74,695.771 2358.68,678.702 2358.68,657.678C2358.68,636.655 2375.74,619.586 2396.77,619.586ZM2396.77,642.503C2388.39,642.503 2381.59,649.303 2381.59,657.678C2381.59,666.054 2388.39,672.854 2396.77,672.854C2405.14,672.854 2411.94,666.054 2411.94,657.678C2411.94,649.303 2405.14,642.503 2396.77,642.503Z" style="fill:white;"/>
        </g>
    </g>
</svg>
