<?xml version="1.0" standalone="no"?>
<!DOCTYPE svg PUBLIC "-//W3C//DTD SVG 20010904//EN"
 "http://www.w3.org/TR/2001/REC-SVG-20010904/DTD/svg10.dtd">
<svg version="1.0" xmlns="http://www.w3.org/2000/svg"
 width="105.000000pt" height="95.000000pt" viewBox="0 0 105.000000 95.000000"
 preserveAspectRatio="xMidYMid meet">

<g transform="translate(0.000000,95.000000) scale(0.100000,-0.100000)"
fill="#000000" stroke="none">
<path d="M569 750 c-39 -21 -99 -83 -99 -103 0 -18 21 -37 41 -37 10 0 39 18
64 40 58 50 94 53 136 11 32 -33 37 -67 15 -110 -16 -30 -81 -92 -116 -111
-29 -15 -78 -6 -106 21 -29 27 -68 22 -72 -9 -4 -30 22 -60 73 -83 80 -37 135
-21 223 65 65 62 92 112 92 168 -1 124 -140 207 -251 148z"/>
</g>
</svg>
