<svg width="16" height="19" viewBox="0 0 16 19" fill="none" xmlns="http://www.w3.org/2000/svg">
<path fill-rule="evenodd" clip-rule="evenodd" d="M8 0C12.4112 0 16 3.616 16 8.06109C16 13.5253 9.73964 18.9091 8 18.9091C6.26036 18.9091 0 13.5253 0 8.06109C0 3.616 3.58885 0 8 0ZM8 1.45455C4.39079 1.45455 1.45455 4.41891 1.45455 8.06109C1.45455 11.4585 4.38562 15.087 6.38036 16.8766C7.35428 17.7503 8.64557 17.75 9.61942 16.8762C11.6142 15.0864 14.5455 11.4579 14.5455 8.06109C14.5455 4.41891 11.6092 1.45455 8 1.45455ZM8.00097 4.84848C9.73867 4.84848 11.1525 6.2623 11.1525 8.00097C11.1525 9.73867 9.7377 12.4545 8 12.4545C6.2623 12.4545 4.84945 9.73867 4.84945 8.00097C4.84945 6.2623 6.26327 4.84848 8.00097 4.84848ZM9.69702 7.94726C9.64658 6.55097 6.40261 6.51547 6.30678 7.90939C6.30493 7.93624 6.304 7.96668 6.304 8.00097C6.304 8.93673 7.06424 9 8 9C8.93576 9 9.69794 8.93673 9.69794 8.00097C9.69794 7.98212 9.69763 7.96422 9.69702 7.94726Z" fill="white"/>
</svg>
