<svg width="18" height="20" viewBox="0 0 18 20" fill="none" xmlns="http://www.w3.org/2000/svg">
<path d="M4.31818 8.77273V5.31818C4.31818 4.17293 4.77313 3.07458 5.58295 2.26477C6.39277 1.45495 7.49111 1 8.63637 1C9.78162 1 10.88 1.45495 11.6898 2.26477C12.4996 3.07458 12.9545 4.17293 12.9545 5.31818V8.77273" stroke="white" stroke-linecap="round" stroke-linejoin="round"/>
<path d="M0.5 12.7727C0.5 10.8397 2.067 9.27274 4 9.27274H13.2727C15.2057 9.27274 16.7727 10.8397 16.7727 12.7727V17C16.7727 18.3807 15.6534 19.5 14.2727 19.5H3C1.61929 19.5 0.5 18.3807 0.5 17V12.7727Z" stroke="white"/>
</svg>
