<svg width="22" height="19" viewBox="0 0 22 19" fill="none" xmlns="http://www.w3.org/2000/svg">
<path d="M19.1939 1.91646L19.1945 1.91702C20.1035 2.82513 20.6111 4.04906 20.6111 5.33056V13.6694C20.6111 16.337 18.4402 18.5 15.7689 18.5H5.34111C2.66997 18.5 0.5 16.3371 0.5 13.6694V5.33056C0.5 2.66228 2.66006 0.5 5.34111 0.5H15.7689C17.0528 0.5 18.2868 1.00745 19.1939 1.91646ZM17.0128 4.99139L17.0009 4.9902L16.9889 4.98957C16.6432 4.97146 16.3054 5.08639 16.046 5.31939L11.2991 9.10926L11.2991 9.10923L11.2945 9.11302C10.866 9.46359 10.2524 9.46888 9.81626 9.11273L9.81628 9.11271L9.81235 9.10957L5.06235 5.30957L5.05494 5.30364L5.0473 5.29799C4.52891 4.91461 3.79408 4.95161 3.33725 5.424C2.88091 5.88392 2.82739 6.61579 3.22206 7.13283L3.24291 7.16014L3.2673 7.18435L3.40558 7.32157L3.42672 7.34255L3.45021 7.36088L8.25165 11.107C8.2519 11.1073 8.25216 11.1075 8.25242 11.1077C8.76037 11.5062 9.28229 11.3773 9.63637 11.2528C9.71215 11.2262 9.78902 11.1965 9.85866 11.1696C9.86997 11.1653 9.88109 11.161 9.89198 11.1568C9.97342 11.1254 10.0472 11.0976 10.1201 11.0736C10.2658 11.0255 10.387 11 10.5 11C10.6165 11 10.7564 11.027 10.935 11.0789C11.0228 11.1044 11.1123 11.1335 11.2098 11.1654L11.2212 11.1691C11.3129 11.1991 11.4124 11.2316 11.5117 11.2608C11.8944 11.3733 12.4865 11.5078 12.996 11.1068L12.996 11.1068L12.9991 11.1043L17.7607 7.29372L17.7823 7.27644L17.8019 7.25689L17.8863 7.17245L17.9033 7.15544L17.9186 7.13688C18.3239 6.64512 18.3246 5.9296 17.8999 5.43686L17.8935 5.42943L17.8868 5.42226C17.6542 5.17291 17.3389 5.02417 17.0128 4.99139Z" stroke="white"/>
</svg>
