<svg width="14" height="17" viewBox="0 0 14 17" fill="none" xmlns="http://www.w3.org/2000/svg">
<path d="M9.30713 14.9354C9.17102 15.1701 8.97565 15.3648 8.74059 15.5002C8.50553 15.6356 8.23903 15.7069 7.96777 15.7069C7.69651 15.7069 7.43001 15.6356 7.19495 15.5002C6.95989 15.3648 6.76453 15.1701 6.62842 14.9354" stroke="white" stroke-linecap="round" stroke-linejoin="round"/>
<path d="M12.582 9.52307C12.2376 8.26222 12.0734 6.95897 12.0943 5.6521" stroke="white" stroke-linecap="round" stroke-linejoin="round"/>
<path d="M3.52387 3.52393C3.38937 3.96027 3.32151 4.41442 3.32258 4.87102C3.32258 7.50157 2.77536 9.22007 2.21215 10.2921C1.93606 10.8177 2.38802 11.8388 2.98167 11.8388H11.8387" stroke="white" stroke-linecap="round" stroke-linejoin="round"/>
<path d="M12.0942 5.65205C12.0954 4.81056 11.8681 3.98452 11.4364 3.26219C11.0047 2.53986 10.3849 1.94836 9.64319 1.55087C8.90149 1.15339 8.06574 0.964849 7.22522 1.0054C6.38469 1.04594 5.57097 1.31405 4.87097 1.78109" stroke="white" stroke-linecap="round" stroke-linejoin="round"/>
<path d="M1.38708 1L13 13" stroke="white" stroke-linecap="round" stroke-linejoin="round"/>
</svg>
