<svg width="19" height="22" viewBox="0 0 19 22" fill="none" xmlns="http://www.w3.org/2000/svg">
<path d="M4.14936 4.08668L4.14913 4.08733C4.09087 4.25483 4.17938 4.44045 4.35115 4.50005L4.3526 4.50055C4.51836 4.55863 4.70426 4.47105 4.76425 4.29815C5.41606 2.41474 7.19537 1.14944 9.18989 1.14944H9.20529C11.7811 1.14944 13.8795 3.23471 13.8906 5.80955L13.8906 5.81145L13.8914 7.28758L13.8917 7.75584L13.4244 7.78675L9.2416 8.06351L9.20875 8.06569L9.1759 8.06354L4.98057 7.78865C2.50977 7.79728 0.500484 9.81172 0.500484 12.2857V17.0024C0.500484 19.4817 2.51842 21.4995 4.99651 21.4995H13.4024C15.8815 21.4995 17.8984 19.4818 17.8984 17.0024V12.2857C17.8984 10.3238 16.6351 8.649 14.8767 8.0368L14.5412 7.92L14.5411 7.56476L14.5406 5.83261C14.5406 5.83226 14.5406 5.83192 14.5406 5.83157C14.5269 2.87442 12.1359 0.499512 9.20859 0.499512H9.18659C6.91815 0.499512 4.8925 1.94072 4.14936 4.08668ZM4.99651 8.43857H13.4024C15.5245 8.43857 17.2485 10.1641 17.2485 12.2857V17.0024C17.2485 19.124 15.5245 20.8496 13.4024 20.8496H4.99651C2.87563 20.8496 1.15042 19.1242 1.15042 17.0024V12.2857C1.15042 10.164 2.87563 8.43857 4.99651 8.43857Z" stroke="white"/>
<circle cx="9" cy="14" r="1" fill="white"/>
<path d="M8.43798 14.4961C8.47341 14.2127 8.71436 14 9 14C9.28564 14 9.52659 14.2127 9.56202 14.4961L9.87597 17.0077C9.94183 17.5346 9.53099 18 9 18C8.46901 18 8.05817 17.5346 8.12403 17.0077L8.43798 14.4961Z" fill="white"/>
</svg>
