<svg width="19" height="16" viewBox="0 0 19 16" fill="none" xmlns="http://www.w3.org/2000/svg">
<path d="M13.3636 14.9091V13.3636C13.3636 12.5439 13.038 11.7577 12.4583 11.178V11.178C11.3239 10.0436 9.50552 9.97438 8.01024 9.39289L7 9.00002L6.31492 9.29974C4.84812 9.94145 3.03741 10.0459 1.90531 11.178V11.178C1.32565 11.7577 1 12.5439 1 13.3636V14.9091" stroke="white" stroke-width="1.5" stroke-linecap="round" stroke-linejoin="round"/>
<path d="M7.18185 7.18182C8.88891 7.18182 10.2728 5.79797 10.2728 4.09091C10.2728 2.38385 8.88891 1 7.18185 1C5.47479 1 4.09094 2.38385 4.09094 4.09091C4.09094 5.79797 5.47479 7.18182 7.18185 7.18182Z" fill="#0029FF" stroke="white" stroke-width="1.5" stroke-linecap="round" stroke-linejoin="round"/>
<path d="M17.9999 14.909V13.3635C17.9994 12.6787 17.7715 12.0134 17.3519 11.4722C16.9323 10.9309 16.3449 10.5443 15.6818 10.3731" stroke="white" stroke-width="1.5" stroke-linecap="round" stroke-linejoin="round"/>
<path d="M12.5909 1.10036C13.2558 1.2706 13.8451 1.65727 14.2659 2.19942C14.6868 2.74158 14.9152 3.40837 14.9152 4.09468C14.9152 4.781 14.6868 5.44779 14.2659 5.98994C13.8451 6.5321 13.2558 6.91877 12.5909 7.089" stroke="white" stroke-width="1.5" stroke-linecap="round" stroke-linejoin="round"/>
</svg>
