<svg width="19" height="19" viewBox="0 0 19 19" fill="none" xmlns="http://www.w3.org/2000/svg">
<path d="M5.36986 18.5216C2.57765 17.1149 0.788467 14.7347 0.137854 11.5679C-0.024799 10.7507 -0.0519077 8.80084 0.101709 8.05124C0.508342 6.03843 1.28546 4.46427 2.57765 3.07243C4.43913 1.06239 6.83374 0 9.49944 0C12.138 0 14.5236 1.04296 16.3399 2.99284C17.7225 4.46427 18.4996 6.02177 18.8972 8.07345C19.0327 8.75642 19.0327 10.6184 18.9062 11.3865C18.4905 13.8148 17.1713 16.0266 15.2465 17.5128C14.5598 18.044 12.879 18.9713 12.6079 18.9713C12.5085 18.9713 12.4995 18.8658 12.5447 18.4392C12.626 17.7544 12.7073 17.6119 13.0869 17.449C13.6923 17.1899 14.7224 16.4384 15.355 15.7888C16.4483 14.6782 17.2526 13.2253 17.6231 11.6984C17.858 10.7452 17.8309 8.62593 17.5688 7.64498C16.7465 4.52628 14.2616 2.10165 11.2163 1.45385C10.3308 1.26876 8.72232 1.26876 7.82773 1.45385C4.74636 2.10165 2.19813 4.64658 1.42101 7.84857C1.21317 8.71848 1.21317 10.8377 1.42101 11.7076C1.93607 13.8268 3.27345 15.7703 5.02648 16.927C5.36986 17.1584 5.78553 17.399 5.95722 17.473C6.33675 17.6396 6.41807 17.7784 6.49036 18.4633C6.53554 18.8797 6.52651 19 6.42711 19C6.36385 19 5.903 18.7964 5.41504 18.5558L5.36986 18.5216ZM5.40601 14.7569C4.46624 13.9888 3.6349 12.6266 3.29152 11.2902C3.08368 10.4833 3.08368 8.94891 3.30055 8.14378C3.86984 5.97087 5.43312 4.28659 7.60183 3.49535C8.3428 3.22697 9.9874 3.16682 10.9001 3.37319C14.0447 4.0904 16.2767 7.31552 15.8429 10.5147C15.6712 11.8039 15.2375 12.8625 14.4694 13.8463C14.0899 14.3432 13.1682 15.1771 13.0055 15.1771C12.9784 15.1771 12.9513 14.8624 12.9513 14.4793V13.7797L13.4212 13.2059C15.1923 11.033 15.0658 7.99757 13.132 6.00604C12.382 5.23053 11.5145 4.77522 10.394 4.56515C9.67114 4.42818 9.51752 4.42818 8.75847 4.55589C7.60634 4.74838 6.71356 5.20554 5.92108 6.00882C3.97828 7.97998 3.85177 11.0311 5.62288 13.2059L6.08915 13.7797V14.483C6.08915 14.8717 6.05933 15.1863 6.02228 15.1863C5.98614 15.1863 5.72409 15.0012 5.44396 14.7699L5.40601 14.7569Z" fill="white"/>
<circle cx="9.5001" cy="9.5001" r="1.9" fill="white"/>
<path d="M11.3996 16.1501C11.3996 18.7735 11.5983 17.1001 9.49963 17.1001C7.40094 17.1001 7.59925 18.7735 7.59925 16.1501C7.59925 13.5267 7.40094 12.3501 9.49963 12.3501C11.5983 12.3501 11.3996 13.5267 11.3996 16.1501Z" fill="white"/>
</svg>
