<svg width="15" height="15" viewBox="0 0 15 15" fill="none" xmlns="http://www.w3.org/2000/svg">
<path d="M7.43215 1.00456L7.5 1C7.75313 1 7.96233 1.1881 7.99544 1.43215L8 1.5V7H13.5C13.7531 7 13.9623 7.1881 13.9954 7.43215L14 7.5C14 7.75313 13.8119 7.96233 13.5678 7.99544L13.5 8H8V13.5C8 13.7531 7.8119 13.9623 7.56785 13.9954L7.5 14C7.24687 14 7.03767 13.8119 7.00456 13.5678L7 13.5V8H1.5C1.24687 8 1.03767 7.8119 1.00456 7.56785L1 7.5C1 7.24687 1.1881 7.03767 1.43215 7.00456L1.5 7H7V1.5C7 1.24687 7.1881 1.03767 7.43215 1.00456L7.5 1L7.43215 1.00456Z" fill="white"/>
<path d="M7.43215 1.00456L7.5 1C7.75313 1 7.96233 1.1881 7.99544 1.43215L8 1.5V7H13.5C13.7531 7 13.9623 7.1881 13.9954 7.43215L14 7.5C14 7.75313 13.8119 7.96233 13.5678 7.99544L13.5 8H8V13.5C8 13.7531 7.8119 13.9623 7.56785 13.9954L7.5 14C7.24687 14 7.03767 13.8119 7.00456 13.5678L7 13.5V8H1.5C1.24687 8 1.03767 7.8119 1.00456 7.56785L1 7.5C1 7.24687 1.1881 7.03767 1.43215 7.00456L1.5 7H7V1.5C7 1.24687 7.1881 1.03767 7.43215 1.00456L7.5 1L7.43215 1.00456Z" stroke="white" stroke-width="2"/>
</svg>
