<svg width="19" height="19" viewBox="0 0 19 19" fill="none" xmlns="http://www.w3.org/2000/svg">
<path d="M9.5 18C14.1944 18 18 14.1944 18 9.5C18 4.80558 14.1944 1 9.5 1C4.80558 1 1 4.80558 1 9.5C1 14.1944 4.80558 18 9.5 18Z" stroke="white" stroke-width="2" stroke-linecap="round" stroke-linejoin="round"/>
<path d="M9.49998 12.9C11.3777 12.9 12.9 11.3777 12.9 9.49998C12.9 7.62221 11.3777 6.09998 9.49998 6.09998C7.62221 6.09998 6.09998 7.62221 6.09998 9.49998C6.09998 11.3777 7.62221 12.9 9.49998 12.9Z" stroke="white" stroke-width="2" stroke-linecap="round" stroke-linejoin="round"/>
<path d="M3.4906 3.49054L7.0946 7.09454" stroke="white" stroke-width="2" stroke-linecap="round" stroke-linejoin="round"/>
<path d="M11.9055 11.9055L15.5095 15.5095" stroke="white" stroke-width="2" stroke-linecap="round" stroke-linejoin="round"/>
</svg>
