<svg width="25" height="24" viewBox="0 0 25 24" fill="none" xmlns="http://www.w3.org/2000/svg">
<path d="M16.9137 0C21.432 0 24.2715 2.81877 24.2715 7.36817V10.3942C24.2715 10.6324 24.1762 10.8606 24.0068 11.0281C23.8375 11.1955 23.6081 11.2882 23.3699 11.2854V11.2647C22.872 11.2647 22.4683 10.861 22.4683 10.3631V7.36817C22.4683 3.77217 20.4994 1.80318 16.9137 1.80318H8.07398C4.48835 1.80318 2.50899 3.78254 2.50899 7.36817V16.2079C2.50899 19.7832 4.48835 21.7625 8.07398 21.7625H16.9137C20.4994 21.7625 22.4683 19.7832 22.4683 16.2079C22.4683 15.71 22.872 15.3063 23.3699 15.3063C23.8679 15.3063 24.2715 15.71 24.2715 16.2079C24.2715 20.747 21.4528 23.5657 16.9137 23.5657H8.07398C3.52458 23.5657 0.705811 20.747 0.705811 16.2079V7.36817C0.705811 2.81877 3.52458 0 8.07398 0H16.9137ZM12.5716 13.7208C12.8117 13.7261 13.0395 13.8281 13.2034 14.0037C13.3672 14.1792 13.4533 14.4135 13.4421 14.6534V15.7934L13.426 15.9349C13.3899 16.1205 13.2961 16.2913 13.1562 16.422C12.9812 16.5852 12.7486 16.6723 12.5094 16.6639C12.0139 16.6415 11.6271 16.2271 11.6389 15.7312V14.5913C11.647 14.3521 11.7499 14.126 11.9248 13.9627C12.0997 13.7994 12.3324 13.7124 12.5716 13.7208ZM12.5301 6.89147C12.6304 6.89144 12.729 6.90833 12.822 6.94053C13.193 7.05227 13.4628 7.39634 13.4628 7.80342L13.4619 10.6211L16.5303 10.6222C16.6336 10.621 16.7353 10.6377 16.8311 10.6708C16.9708 10.7134 17.1003 10.7906 17.2056 10.8972C17.3731 11.0666 17.4657 11.296 17.463 11.5341C17.463 12.0241 17.0719 12.4245 16.5821 12.4357H8.55069C8.46632 12.4338 8.38484 12.4205 8.30772 12.3972C7.91356 12.2991 7.62268 11.9456 7.61795 11.5238C7.61524 11.2856 7.70791 11.0563 7.87535 10.8869C8.04279 10.7175 8.27106 10.6222 8.50923 10.6222H11.6182V7.79306C11.6293 7.29579 12.0328 6.89693 12.5301 6.89147Z" fill="white"/>
</svg>
