<svg width="18" height="23" viewBox="0 0 18 23" fill="none" xmlns="http://www.w3.org/2000/svg">
<path d="M9 14.5C9.23317 14.5 9.8736 14.6 10.7792 14.8437C11.6518 15.0786 12.6808 15.4223 13.6585 15.8542C14.6456 16.2901 15.5297 16.7938 16.1505 17.3308C16.7892 17.8833 17 18.3369 17 18.6738C17 19.1876 16.8357 19.5668 16.5422 19.8841C16.2275 20.2243 15.7224 20.5352 14.9905 20.7908C13.5136 21.3066 11.4045 21.5 9 21.5C6.58439 21.5 4.47631 21.2997 3.00388 20.7783C2.27433 20.5199 1.77103 20.2066 1.45725 19.8642C1.16413 19.5444 1 19.1622 1 18.6468C1 18.3206 1.21073 17.8701 1.86816 17.3156C2.50462 16.7788 3.40828 16.2769 4.40984 15.8431C5.40164 15.4136 6.43894 15.0724 7.30498 14.8394C8.21038 14.5958 8.82085 14.5 9 14.5ZM9 1C11.7547 1 13.9557 3.20103 13.9557 5.95243C13.9557 8.70409 11.7544 10.906 9 10.906C6.24658 10.906 4.04427 8.70396 4.04427 5.95243C4.04427 3.20115 6.24633 1 9 1Z" stroke="white" stroke-width="2"/>
</svg>
