<svg width="18" height="23" viewBox="0 0 18 23" fill="none" xmlns="http://www.w3.org/2000/svg">
<path d="M9 15.3207C11.4283 15.3207 13.6074 15.52 15.1634 16.0711C15.9381 16.3454 16.5234 16.6951 16.9115 17.1186C17.2892 17.5309 17.5 18.0336 17.5 18.6738C17.5 19.3134 17.2883 19.8139 16.9093 20.2236C16.5197 20.6448 15.9321 20.9915 15.1554 21.2628C13.5953 21.8077 11.4157 22 9 22C6.57224 22 4.3932 21.8007 2.83697 21.2496C2.06219 20.9752 1.47678 20.6255 1.08864 20.202C0.710819 19.7898 0.5 19.287 0.5 18.6468C0.5 18.0073 0.711734 17.5068 1.09071 17.0971C1.48034 16.6759 2.06785 16.3291 2.84463 16.0579C4.40469 15.513 6.58428 15.3207 9 15.3207ZM9 0.5C12.0306 0.5 14.4557 2.92465 14.4557 5.95243C14.4557 8.98034 12.0305 11.406 9 11.406C5.97061 11.406 3.54427 8.98028 3.54427 5.95243C3.54427 2.92471 5.97048 0.5 9 0.5Z" stroke="white"/>
</svg>
