<svg width="15" height="23" viewBox="0 0 15 23" fill="none" xmlns="http://www.w3.org/2000/svg">
<rect x="0.5" y="4.5" width="14" height="13" rx="3.5" stroke="white"/>
<path d="M7.21094 12.92C6.98694 12.92 6.7956 12.8453 6.63694 12.696C6.47827 12.5373 6.39427 12.346 6.38494 12.122L6.17494 6.578C6.1656 6.36333 6.2356 6.17667 6.38494 6.018C6.53427 5.85933 6.71627 5.78 6.93094 5.78H7.68694C7.9016 5.78 8.0836 5.85933 8.23294 6.018C8.38227 6.17667 8.45227 6.36333 8.44294 6.578L8.23294 12.122C8.2236 12.346 8.1396 12.5373 7.98094 12.696C7.82227 12.8453 7.63094 12.92 7.40694 12.92H7.21094ZM7.54694 14.04C7.7616 14.04 7.9436 14.1193 8.09294 14.278C8.2516 14.4367 8.33094 14.6233 8.33094 14.838V15.202C8.33094 15.4167 8.2516 15.6033 8.09294 15.762C7.9436 15.9207 7.7616 16 7.54694 16H7.07094C6.85627 16 6.6696 15.9207 6.51094 15.762C6.3616 15.6033 6.28694 15.4167 6.28694 15.202V14.838C6.28694 14.6233 6.3616 14.4367 6.51094 14.278C6.6696 14.1193 6.85627 14.04 7.07094 14.04H7.54694Z" fill="white"/>
</svg>
