<svg width="18" height="22" viewBox="0 0 18 22" fill="none" xmlns="http://www.w3.org/2000/svg">
<path d="M3 16.5L15.5 7.5" stroke="white"/>
<path d="M3.66023 2.97334L3.66693 2.97009C3.87763 2.86799 4.10788 2.81325 4.34177 2.80976C4.70062 2.78178 5.05661 2.8884 5.34176 3.10833L14.6057 9.81579C14.8103 9.95666 14.9774 10.1454 15.0931 10.3653C15.21 10.5875 15.271 10.8351 15.271 11.0862C15.271 11.3373 15.21 11.5849 15.0931 11.8071C14.977 12.0279 14.809 12.2172 14.6032 12.3583L5.24332 18.9837L5.23525 18.9895L5.23519 18.9894C4.99451 19.1527 4.71065 19.2403 4.41972 19.2403C4.13845 19.2403 3.8638 19.1584 3.62838 19.0054C3.38499 18.8726 3.18176 18.6766 3.03938 18.4382C2.89247 18.1923 2.81587 17.9105 2.81751 17.6241M3.66023 2.97334L3.31751 17.6256M3.66023 2.97334L3.65363 2.97679C3.39904 3.10967 3.18665 3.31092 3.03938 3.55745C2.89247 3.8034 2.81587 4.08513 2.81751 4.37159M3.66023 2.97334L3.31751 4.37003M2.81751 17.6241C2.81752 17.6234 2.81752 17.6228 2.81753 17.6222L3.31751 17.6256M2.81751 17.6241V17.6256H3.31751M2.81751 17.6241V10.9978V4.37159M3.31751 17.6256V10.9978V4.37003M2.81751 4.37159C2.81752 4.37223 2.81752 4.37287 2.81753 4.3735L3.31751 4.37003M2.81751 4.37159V4.37003H3.31751M4.3632 21.5C3.34077 21.4995 2.3591 21.0882 1.63422 20.3544C0.908679 19.62 0.5 18.6227 0.5 17.5815V4.33042C0.513323 3.62453 0.714508 2.9357 1.08188 2.33658C1.44969 1.73676 1.97022 1.24941 2.58786 0.925322C3.2101 0.604684 3.90615 0.460971 4.60208 0.509079C5.29835 0.55721 5.96917 0.795604 6.54311 1.19948C6.54328 1.19961 6.54346 1.19974 6.54364 1.19986L15.9024 7.82447C16.3959 8.18692 16.7983 8.66284 17.0761 9.21375C17.3546 9.76587 17.5 10.3773 17.5 10.9978C17.5 11.6184 17.3546 12.2298 17.0761 12.7819C16.7983 13.3328 16.3959 13.8088 15.9024 14.1712L6.54292 20.7963C5.90265 21.2487 5.14271 21.4938 4.3632 21.5Z" stroke="white"/>
</svg>
