<svg width="18" height="21" viewBox="0 0 18 21" fill="none" xmlns="http://www.w3.org/2000/svg">
<path d="M2.86365 15.75L14.7955 7.15909" stroke="white"/>
<path d="M3.48364 2.81788L3.49034 2.81463C3.69423 2.71583 3.91703 2.66281 4.14336 2.65933C4.49118 2.63238 4.83616 2.73577 5.11255 2.94883L13.9549 9.35105C14.1531 9.4876 14.3151 9.67049 14.4272 9.88357C14.5405 10.099 14.5996 10.3389 14.5996 10.5823C14.5996 10.8257 14.5405 11.0656 14.4272 11.281C14.3146 11.495 14.1518 11.6785 13.9524 11.8152L5.01812 18.1394L5.01004 18.1451L5.00999 18.145C4.7765 18.3035 4.5011 18.3884 4.21882 18.3884C3.94621 18.3884 3.68003 18.3092 3.45181 18.1611C3.21624 18.0323 3.01954 17.8425 2.88172 17.6118L3.31096 17.3554L2.88171 17.6118C2.73936 17.3735 2.66514 17.1005 2.66672 16.8229M3.48364 2.81788L3.16672 10.4979V4.17139M3.48364 2.81788L3.47703 2.82133C3.23027 2.95013 3.02443 3.14518 2.88172 3.3841C2.73936 3.62241 2.66514 3.8954 2.66672 4.17294M3.48364 2.81788L3.16672 4.17139M2.66672 16.8229C2.66672 16.8223 2.66673 16.8216 2.66673 16.821L3.16672 16.8245H2.66672V16.8229ZM2.66672 16.8229V10.4979V4.17294M2.66672 4.17294C2.66672 4.17358 2.66673 4.17423 2.66673 4.17487L3.16672 4.17139M2.66672 4.17294V4.17139H3.16672M4.16478 20.5C3.19498 20.4995 2.26377 20.1093 1.5761 19.4133C0.887774 18.7165 0.5 17.7702 0.5 16.7823V4.1338C0.512678 3.4641 0.703565 2.81062 1.05208 2.24225C1.40103 1.67319 1.89483 1.21086 2.48071 0.903426C3.07097 0.599287 3.73121 0.46298 4.39133 0.508612C5.05178 0.554268 5.68813 0.780397 6.23258 1.16353C6.23276 1.16366 6.23294 1.16378 6.23312 1.16391L15.1662 7.48725C15.6343 7.83108 16.016 8.28255 16.2797 8.80518C16.5439 9.32902 16.6818 9.90916 16.6818 10.4979C16.6818 11.0867 16.5439 11.6669 16.2797 12.1907C16.0161 12.7133 15.6344 13.1648 15.1663 13.5086L6.2324 19.8325C6.23234 19.8325 6.23228 19.8326 6.23223 19.8326C5.62489 20.2617 4.9041 20.4941 4.16478 20.5Z" stroke="white"/>
</svg>
