<svg width="15" height="14" viewBox="0 0 15 14" fill="none" xmlns="http://www.w3.org/2000/svg">
<path fill-rule="evenodd" clip-rule="evenodd" d="M7.07198 0L8.83275 1.14809L10.9347 1.1342L11.7952 3.05197L13.571 4.17669L13.2581 6.25527L14.144 8.1615L12.757 9.74096L12.4716 11.8235L10.4509 12.4023L9.08488 14L7.07198 13.3945L5.05909 14L3.6931 12.4023L1.67237 11.8235L1.38699 9.74096L0 8.1615L0.885822 6.25527L0.57293 4.17669L2.34872 3.05197L3.20926 1.1342L5.31122 1.14809L7.07198 0ZM8.94264 5.02801L6.12949 8.0148L5.20219 7.03025C4.98575 6.80046 4.62401 6.78963 4.39422 7.00606C4.16442 7.2225 4.15359 7.58424 4.37003 7.81403L5.71341 9.24035C5.93907 9.47993 6.31992 9.47993 6.54557 9.24035L9.7748 5.81178C9.99123 5.58199 9.9804 5.22025 9.75061 5.00382C9.52081 4.78738 9.15907 4.79821 8.94264 5.02801Z" fill="#757171"/>
</svg>
