<svg width="16" height="17" viewBox="0 0 16 17" fill="none" xmlns="http://www.w3.org/2000/svg">
<path d="M12.6665 5.5C13.9552 5.5 14.9998 4.49264 14.9998 3.25C14.9998 2.00736 13.9552 1 12.6665 1C11.3778 1 10.3332 2.00736 10.3332 3.25C10.3332 4.49264 11.3778 5.5 12.6665 5.5Z" stroke="white" stroke-width="1.6" stroke-linecap="round" stroke-linejoin="round"/>
<path d="M12.6665 16C13.9552 16 14.9998 14.9926 14.9998 13.75C14.9998 12.5074 13.9552 11.5 12.6665 11.5C11.3778 11.5 10.3332 12.5074 10.3332 13.75C10.3332 14.9926 11.3778 16 12.6665 16Z" stroke="white" stroke-width="1.6" stroke-linecap="round" stroke-linejoin="round"/>
<path d="M5.34799 9.63251L10.6602 12.6175" stroke="white" stroke-width="1.6" stroke-linecap="round" stroke-linejoin="round"/>
<path d="M10.6524 4.38251L5.34799 7.36751" stroke="white" stroke-width="1.6" stroke-linecap="round" stroke-linejoin="round"/>
<path d="M3.33333 10.75C4.622 10.75 5.66667 9.74264 5.66667 8.5C5.66667 7.25736 4.622 6.25 3.33333 6.25C2.04467 6.25 1 7.25736 1 8.5C1 9.74264 2.04467 10.75 3.33333 10.75Z" stroke="white" stroke-width="1.6" stroke-linecap="round" stroke-linejoin="round"/>
</svg>
