<svg width="23" height="21" viewBox="0 0 23 21" fill="none" xmlns="http://www.w3.org/2000/svg">
<path fill-rule="evenodd" clip-rule="evenodd" d="M11.0672 1.5C10.9639 1.5 10.7096 1.73104 10.5746 2.00119L8.50186 6.14547C8.17381 6.80043 7.54156 7.25561 6.81055 7.36004L2.17023 8.02861C1.86375 8.07288 1.75932 8.2999 1.72754 8.39525C1.69916 8.4872 1.65376 8.72103 1.86489 8.92308L5.22026 12.1468C5.7549 12.661 5.99781 13.4022 5.87068 14.1275L5.08065 18.6793C5.03184 18.9642 5.21005 19.13 5.28951 19.1867C5.3735 19.2503 5.59825 19.3763 5.87636 19.231L10.0252 17.08C10.679 16.7428 11.4577 16.7428 12.1092 17.08L16.2569 19.2299C16.5361 19.374 16.7609 19.248 16.846 19.1867C16.9255 19.13 17.1037 18.9642 17.0549 18.6793L16.2626 14.1275C16.1355 13.4022 16.3784 12.661 16.913 12.1468L20.2684 8.92308C20.4806 8.72103 20.4352 8.48606 20.4057 8.39525C20.3751 8.2999 20.2707 8.07288 19.9642 8.02861L15.3239 7.36004C14.594 7.25561 13.9617 6.80043 13.6337 6.14434L11.5587 2.00119C11.4248 1.73104 11.1705 1.5 11.0672 1.5ZM5.61528 20.9995C5.14648 20.9995 4.68109 20.8519 4.28267 20.5613C3.59479 20.0573 3.25766 19.2253 3.40409 18.3876L4.19413 13.8358C4.22364 13.6667 4.16575 13.4953 4.04089 13.375L0.68551 10.1513C0.0680112 9.55987 -0.153335 8.68584 0.10774 7.87424C0.371085 7.05356 1.06804 6.46671 1.92732 6.34411L6.56764 5.67554C6.74698 5.65056 6.90136 5.54046 6.97854 5.38381L9.05239 1.2384C9.43492 0.474475 10.2068 0 11.0672 0C11.9276 0 12.6995 0.474475 13.082 1.2384L15.157 5.38268C15.2353 5.54046 15.3886 5.65056 15.5668 5.67554L20.2071 6.34411C21.0664 6.46671 21.7633 7.05356 22.0267 7.87424C22.2877 8.68584 22.0653 9.55987 21.4478 10.1513L18.0924 13.375C17.9675 13.4953 17.9108 13.6667 17.9403 13.8347L18.7314 18.3876C18.8767 19.2264 18.5396 20.0585 17.8506 20.5613C17.1525 21.0733 16.2433 21.1425 15.4726 20.7407L11.326 18.5919C11.1637 18.5079 10.9696 18.5079 10.8073 18.5919L6.66072 20.7418C6.32926 20.9144 5.9717 20.9995 5.61528 20.9995Z" fill="white"/>
</svg>
