<svg width="19" height="22" viewBox="0 0 19 22" fill="none" xmlns="http://www.w3.org/2000/svg">
<path fill-rule="evenodd" clip-rule="evenodd" d="M9.1861 0C6.70459 0 4.48927 1.57625 3.67639 3.92356C3.5268 4.35365 3.75559 4.82333 4.18678 4.97293C4.61686 5.12362 5.08654 4.89373 5.23614 4.46254C5.81802 2.7807 7.40746 1.64994 9.1894 1.64994H9.2048C11.5059 1.64994 13.3803 3.51328 13.3902 5.8122L13.3909 7.28834L4.99602 7.28911C2.24171 7.28911 -7.62939e-06 9.53084 -7.62939e-06 12.2862V17.0029C-7.62939e-06 19.7583 2.24171 22 4.99602 22H13.4019C16.1573 22 18.3979 19.7583 18.3979 17.0029V12.2862C18.3979 10.1046 16.9933 8.24496 15.0406 7.56511L15.0401 5.8309C15.0258 2.59921 12.4123 0 9.2081 0H9.1861ZM4.99602 8.93906H13.4019C15.2477 8.93906 16.748 10.4405 16.748 12.2862V17.0029C16.748 18.8486 15.2477 20.3501 13.4019 20.3501H4.99602C3.15138 20.3501 1.64993 18.8486 1.64993 17.0029V12.2862C1.64993 10.4405 3.15138 8.93906 4.99602 8.93906Z" fill="white"/>
</svg>
