<svg xmlns="http://www.w3.org/2000/svg" fill="none" viewBox="22.59 22.59 11.81 11.81">
<g filter="url(#filter0_d_431_290)">
<path d="M25.6244 24.3069C26.8616 22.0237 30.1384 22.0237 31.3756 24.3069V24.3069C31.6777 24.8645 32.1355 25.3223 32.6931 25.6244V25.6244C34.9763 26.8616 34.9763 30.1384 32.6931 31.3756V31.3756C32.1355 31.6777 31.6777 32.1355 31.3756 32.6931V32.6931C30.1384 34.9763 26.8616 34.9763 25.6244 32.6931V32.6931C25.3223 32.1355 24.8645 31.6777 24.3069 31.3756V31.3756C22.0237 30.1384 22.0237 26.8616 24.3069 25.6244V25.6244C24.8645 25.3223 25.3223 24.8645 25.6244 24.3069V24.3069Z" fill="#0066FF"/>
<path d="M24.4499 25.8882C25.0586 25.5583 25.5583 25.0586 25.8882 24.4499C27.0119 22.376 29.9881 22.376 31.1118 24.4499C31.4417 25.0586 31.9414 25.5583 32.5501 25.8882C34.624 27.0119 34.624 29.9881 32.5501 31.1118C31.9414 31.4417 31.4417 31.9414 31.1118 32.5501C29.9881 34.624 27.0119 34.624 25.8882 32.5501C25.5583 31.9414 25.0586 31.4417 24.4499 31.1118C22.376 29.9881 22.376 27.0119 24.4499 25.8882Z" stroke="white" stroke-width="0.6"/>
</g>
<g filter="url(#filter1_d_431_290)">
<path d="M31 27L27.8817 30L26 28.2132" stroke="white" stroke-width="0.6" stroke-linecap="round" stroke-linejoin="round" shape-rendering="crispEdges"/>
</g>
<defs>
<filter id="filter0_d_431_290" x="0.594727" y="0.594482" width="55.8105" height="55.811" filterUnits="userSpaceOnUse" color-interpolation-filters="sRGB">
<feFlood flood-opacity="0" result="BackgroundImageFix"/>
<feColorMatrix in="SourceAlpha" type="matrix" values="0 0 0 0 0 0 0 0 0 0 0 0 0 0 0 0 0 0 127 0" result="hardAlpha"/>
<feOffset/>
<feGaussianBlur stdDeviation="11"/>
<feComposite in2="hardAlpha" operator="out"/>
<feColorMatrix type="matrix" values="0 0 0 0 0 0 0 0 0 0 0 0 0 0 0 0 0 0 0.78 0"/>
<feBlend mode="normal" in2="BackgroundImageFix" result="effect1_dropShadow_431_290"/>
<feBlend mode="normal" in="SourceGraphic" in2="effect1_dropShadow_431_290" result="shape"/>
</filter>
<filter id="filter1_d_431_290" x="23.7002" y="25.7" width="9.59961" height="7.6001" filterUnits="userSpaceOnUse" color-interpolation-filters="sRGB">
<feFlood flood-opacity="0" result="BackgroundImageFix"/>
<feColorMatrix in="SourceAlpha" type="matrix" values="0 0 0 0 0 0 0 0 0 0 0 0 0 0 0 0 0 0 127 0" result="hardAlpha"/>
<feOffset dy="1"/>
<feGaussianBlur stdDeviation="1"/>
<feComposite in2="hardAlpha" operator="out"/>
<feColorMatrix type="matrix" values="0 0 0 0 0 0 0 0 0 0 0 0 0 0 0 0 0 0 1 0"/>
<feBlend mode="normal" in2="BackgroundImageFix" result="effect1_dropShadow_431_290"/>
<feBlend mode="normal" in="SourceGraphic" in2="effect1_dropShadow_431_290" result="shape"/>
</filter>
</defs>
</svg>