<svg width="27" height="21" viewBox="0 0 27 21" fill="none" xmlns="http://www.w3.org/2000/svg">
<path fill-rule="evenodd" clip-rule="evenodd" d="M7.89176 0.00147016L8.50135 0.00225253C8.60556 0.0023997 8.71093 0.00255471 8.81726 0.00271672L9.46512 0.0037661C10.8866 0.00619289 12.4007 0.00952105 13.5547 0.0119197L14.0601 0.0129541C14.1395 0.0131132 14.2164 0.0132652 14.2905 0.0134092C17.2067 -0.191369 19.839 1.97306 20.0736 4.87754C20.0758 4.90733 20.0777 5.07638 20.0793 5.3839L22.7696 3.1806C23.5525 2.53905 24.6062 2.41333 25.5199 2.84492C26.4336 3.2791 27.0013 4.17598 27 5.18691L26.9844 14.7117C26.9831 15.7226 26.4142 16.6195 25.5017 17.0498C25.144 17.2196 24.7656 17.3012 24.3897 17.3012C23.8052 17.3012 23.2284 17.1003 22.7528 16.7102L20.0853 14.4968C20.0853 14.5343 20.0853 14.5719 20.0852 14.6097C20.1397 15.9783 19.6523 17.2964 18.7114 18.3203C17.7225 19.3973 16.3591 20.0233 14.8738 20.0842C14.8486 20.0861 14.7066 20.0873 14.4737 20.088L13.9616 20.0889C13.7619 20.0891 13.535 20.0891 13.2864 20.089L12.19 20.0879C12.0912 20.0878 11.9909 20.0877 11.8891 20.0875L11.2639 20.0865C9.77426 20.084 8.09625 20.0801 6.79532 20.0773L6.26251 20.0761C6.0937 20.0758 5.93424 20.0755 5.78577 20.0752C5.64838 20.0855 5.511 20.0907 5.37362 20.0907C2.63374 20.092 0.243799 17.9924 0.0182836 15.2383L0.0180817 15.2355L0.0168709 15.2098C0.0167801 15.207 0.0166876 15.2039 0.0165934 15.2005L0.0157035 15.1597C0.0156002 15.1539 0.0154957 15.1476 0.01539 15.1409L0.0144093 15.0654C0.0142975 15.0552 0.0141848 15.0445 0.0140714 15.033L0.0130345 14.9105C0.0129179 14.8946 0.0128009 14.8779 0.0126836 14.8604L0.0119782 14.7446C0.0118605 14.7235 0.0117428 14.7015 0.0116252 14.6784L0.0105732 14.4439C0.0104574 14.4146 0.0103421 14.3843 0.0102273 14.3528L0.00921426 14.0371C0.00910421 13.9983 0.00899513 13.9583 0.00888712 13.9169L0.00794747 13.5079C0.00784703 13.4582 0.00774802 13.4071 0.00765058 13.3545L0.00656381 12.6489C0.00648076 12.5837 0.00639976 12.5168 0.00632091 12.4482L0.00531526 11.286C0.00526102 11.1993 0.00520954 11.1107 0.00516094 11.0201L0.00514246 5.94218C0.00519802 5.78818 0.00525814 5.63161 0.00532294 5.47243C-0.0568881 4.13619 0.42784 2.80902 1.37397 1.77606C2.36157 0.697731 3.72373 0.06914 5.21031 0.00563286C5.23033 0.00419279 5.32506 0.00310474 5.4813 0.00231537L5.76016 0.00134865C5.81377 0.00122265 5.87082 0.00111364 5.9311 0.0010208L7.60055 0.00116198C7.69591 0.00125465 7.79305 0.00135765 7.89176 0.00147016ZM14.3605 1.95491C12.7242 1.95254 10.7233 1.94968 9.0159 1.94781L8.11761 1.9469C7.97406 1.94677 7.83393 1.94665 7.6977 1.94654L5.44375 1.94661C5.35893 1.94699 5.30406 1.94757 5.28289 1.94843C4.3264 1.98861 3.44378 2.39428 2.80741 3.08897C2.21382 3.7383 1.90794 4.56778 1.94812 5.42836L1.94919 10.435C1.94925 10.5455 1.94931 10.6553 1.94937 10.7642L1.95056 12.3117C1.95066 12.408 1.95076 12.5027 1.95086 12.5956L1.95153 13.131C1.95165 13.2163 1.95177 13.2996 1.9519 13.3808L1.95316 14.0482C1.95454 14.6491 1.95628 15.0388 1.95849 15.1138C2.10624 16.9089 3.78853 18.2814 5.71448 18.1337C5.91815 18.134 6.12742 18.1343 6.34103 18.1346L6.99365 18.1357C7.54626 18.1366 8.11815 18.1375 8.68964 18.1385L9.37398 18.1396C9.7148 18.1402 10.0526 18.1407 10.3833 18.1413L11.0336 18.1422C11.14 18.1424 11.2452 18.1426 11.3492 18.1427L11.9565 18.1435C12.0547 18.1436 12.1513 18.1437 12.2463 18.1438L14.5344 18.1438C14.6841 18.1433 14.7781 18.1425 14.8064 18.1414C15.759 18.1026 16.6429 17.6982 17.2793 17.0048C17.8742 16.3581 18.18 15.5286 18.1424 14.6719L18.1413 14.6505L18.1411 8.38249C18.141 8.28069 18.1409 8.1802 18.1409 8.08117L18.1399 6.97195C18.1398 6.88687 18.1397 6.80382 18.1396 6.72295L18.1385 6.05756C18.1381 5.85789 18.1376 5.68163 18.1371 5.53264L18.136 5.27216C18.1352 5.12426 18.1343 5.02942 18.1334 4.99677C17.9869 3.19265 16.2968 1.80327 14.3605 1.95491ZM24.0009 4.68533L20.0847 7.88051C20.0849 8.03975 20.085 8.20528 20.0852 8.3771L20.086 11.6272L23.9853 15.2081C24.2718 15.4414 24.5595 15.3455 24.671 15.291C24.7824 15.2392 25.0403 15.0772 25.0403 14.7091L25.0559 5.18431C25.0572 4.81623 24.798 4.65422 24.6865 4.60109C24.5764 4.54924 24.2847 4.45204 24.0009 4.68533Z" fill="white"/>
</svg>
