<svg width="22" height="16" viewBox="0 0 22 16" fill="none" xmlns="http://www.w3.org/2000/svg">
<path d="M1.3291 9.85463C0.426952 8.76277 0.426951 7.23724 1.3291 6.14537C3.04258 4.07155 6.3631 1 11 1C15.6369 1 18.9574 4.07155 20.6709 6.14537C21.573 7.23723 21.573 8.76276 20.6709 9.85463C18.9574 11.9285 15.6369 15 11 15C6.3631 15 3.04258 11.9285 1.3291 9.85463Z" stroke="white" stroke-width="1.3" stroke-linecap="round" stroke-linejoin="round"/>
<path d="M11 11C12.6569 11 14 9.65685 14 8C14 6.34315 12.6569 5 11 5C9.34315 5 8 6.34315 8 8C8 9.65685 9.34315 11 11 11Z" stroke="white" stroke-width="1.3" stroke-linecap="round" stroke-linejoin="round"/>
</svg>
